{
  "asset": {
    "generator": "Khronos glTF Blender I/O v4.2.60",
    "version": "2.0"
  },
  "scene": 0,
  "scenes": [
    {
      "name": "Scene",
      "nodes": [
        0,
        1,
        2,
        3,
        4,
        5,
        6,
        7,
        8,
        9,
        10,
        11,
        12
      ]
    }
  ],
  "nodes": [
    {
      "mesh": 0,
      "name": "WonCoin",
      "rotation": [
        0.5496803522109985,
        0.4325246214866638,
        0.41995370388031006,
        0.578284502029419
      ],
      "scale": [
        0.1615833193063736,
        0.023743992671370506,
        0.16169360280036926
      ],
      "translation": [
        -0.002102375030517578,
        1.4998350143432617,
        0.4512981176376343
      ]
    },
    {
      "mesh": 1,
      "name": "CenterRoof",
      "rotation": [
        0,
        -0.0032225416507571936,
        0,
        0.9999948143959045
      ],
      "scale": [
        0.563363790512085,
        0.7554843425750732,
        0.5066266059875488
      ],
      "translation": [
        0.0003299713134765625,
        0.7775571346282959,
        -0.01871621608734131
      ]
    },
    {
      "mesh": 2,
      "name": "CenterBody",
      "rotation": [
        0.0032225416507571936,
        0,
        -0.9999948143959045,
        0
      ],
      "scale": [
        -0.563363790512085,
        -0.7554843425750732,
        -0.44712358713150024
      ],
      "translation": [
        0.0003299713134765625,
        0.7775571346282959,
        -0.01871621608734131
      ]
    },
    {
      "mesh": 3,
      "name": "LeftRoof",
      "rotation": [
        0,
        0.7048245668411255,
        0,
        0.7093816995620728
      ],
      "scale": [
        0.3053412139415741,
        0.4772152006626129,
        0.3334919512271881
      ],
      "translation": [
        -0.8578622341156006,
        0.49817728996276855,
        -0.019184231758117676
      ]
    },
    {
      "mesh": 4,
      "name": "LeftBody",
      "rotation": [
        -0.7048245668411255,
        0,
        -0.7093816995620728,
        0
      ],
      "scale": [
        -0.3053412139415741,
        -0.4772152006626129,
        -0.29432353377342224
      ],
      "translation": [
        -0.8578622341156006,
        0.49817728996276855,
        -0.019184231758117676
      ]
    },
    {
      "mesh": 5,
      "name": "RightRoof",
      "rotation": [
        0,
        0.7048245668411255,
        0,
        0.7093816995620728
      ],
      "scale": [
        0.3053412139415741,
        0.4772152006626129,
        0.3132883608341217
      ],
      "translation": [
        0.870244562625885,
        0.46215587854385376,
        -0.008046507835388184
      ]
    },
    {
      "mesh": 6,
      "name": "RightBody",
      "rotation": [
        -0.7048245072364807,
        0,
        -0.7093816995620728,
        0
      ],
      "scale": [
        -0.3053412139415741,
        -0.4772152006626129,
        -0.2764928936958313
      ],
      "translation": [
        0.8367348313331604,
        0.5048754215240479,
        -0.008262395858764648
      ]
    },
    {
      "mesh": 7,
      "name": "PorchRoof",
      "rotation": [
        0,
        0.9999948143959045,
        0,
        0.0032225418835878372
      ],
      "scale": [
        -0.4038267433643341,
        -0.052890948951244354,
        -0.15104205906391144
      ],
      "translation": [
        -0.02050304412841797,
        1.18843674659729,
        0.5594267845153809
      ]
    },
    {
      "mesh": 8,
      "name": "CenterDoor",
      "rotation": [
        0,
        0.9999948143959045,
        0,
        0.0032225416507571936
      ],
      "scale": [
        -0.0830959901213646,
        -0.33139005303382874,
        -0.020609688013792038
      ],
      "translation": [
        -0.08772420883178711,
        0.37962913513183594,
        0.45042645931243896
      ]
    },
    {
      "mesh": 9,
      "name": "CenterDoorBorder",
      "rotation": [
        0,
        0.9999948143959045,
        0,
        0.0032225416507571936
      ],
      "scale": [
        -0.0830959901213646,
        -0.33139005303382874,
        -0.020609688013792038
      ],
      "translation": [
        -0.08772420883178711,
        0.37962913513183594,
        0.45042645931243896
      ]
    },
    {
      "mesh": 10,
      "name": "PorchPillar1",
      "rotation": [
        0.0032225416507571936,
        0,
        -0.9999948143959045,
        0
      ],
      "scale": [
        -0.0635547861456871,
        -0.5531781315803528,
        -0.0481543093919754
      ],
      "translation": [
        -0.3259570598602295,
        0.6073063611984253,
        0.4715029001235962
      ]
    },
    {
      "mesh": 11,
      "name": "PorchPillar2",
      "rotation": [
        0.0032225416507571936,
        0,
        -0.9999948143959045,
        0
      ],
      "scale": [
        -0.0635547861456871,
        -0.5531781315803528,
        -0.0481543093919754
      ],
      "translation": [
        0.31168508529663086,
        0.6073063611984253,
        0.4756125211715698
      ]
    },
    {
      "mesh": 12,
      "name": "WonText",
      "rotation": [
        0.7071031332015991,
        -0.0022786809131503105,
        0.002278681145980954,
        0.7071030735969543
      ],
      "scale": [
        0.20973138511180878,
        0.20973138511180878,
        0.20973138511180878
      ],
      "translation": [
        -0.10102176666259766,
        1.414971113204956,
        0.45891714096069336
      ]
    }
  ],
  "materials": [
    {
      "doubleSided": true,
      "name": "Coin_Bank",
      "pbrMetallicRoughness": {
        "baseColorFactor": [
          0.80131995677948,
          0.534361720085144,
          0.02451721951365471,
          1
        ],
        "metallicFactor": 0,
        "roughnessFactor": 0.5
      }
    },
    {
      "doubleSided": true,
      "name": "BankRoof",
      "pbrMetallicRoughness": {
        "baseColorFactor": [
          0.03488786891102791,
          0.06952966004610062,
          0.4743173122406006,
          1
        ],
        "metallicFactor": 0,
        "roughnessFactor": 0.5
      }
    },
    {
      "doubleSided": true,
      "name": "Building_Wall",
      "pbrMetallicRoughness": {
        "baseColorFactor": [
          0.7888351678848267,
          0.8009926080703735,
          0.5408334732055664,
          1
        ],
        "metallicFactor": 0,
        "roughnessFactor": 0.5
      }
    },
    {
      "doubleSided": true,
      "name": "Window1",
      "pbrMetallicRoughness": {
        "baseColorFactor": [
          0,
          0,
          0,
          1
        ],
        "metallicFactor": 0,
        "roughnessFactor": 0.5
      }
    },
    {
      "doubleSided": true,
      "name": "Material.004",
      "pbrMetallicRoughness": {
        "baseColorFactor": [
          0.800000011920929,
          0.800000011920929,
          0.800000011920929,
          1
        ],
        "metallicFactor": 0,
        "roughnessFactor": 0.5
      }
    },
    {
      "doubleSided": true,
      "name": "Material.003",
      "pbrMetallicRoughness": {
        "baseColorFactor": [
          0.32526934146881104,
          0.19174033403396606,
          0.07721488922834396,
          1
        ],
        "metallicFactor": 0,
        "roughnessFactor": 0.5
      }
    }
  ],
  "meshes": [
    {
      "name": "Cylinder.009",
      "primitives": [
        {
          "attributes": {
            "POSITION": 0,
            "NORMAL": 1,
            "TEXCOORD_0": 2
          },
          "indices": 3,
          "material": 0
        }
      ]
    },
    {
      "name": "Cube.024",
      "primitives": [
        {
          "attributes": {
            "POSITION": 4,
            "NORMAL": 5,
            "TEXCOORD_0": 6
          },
          "indices": 7,
          "material": 1
        }
      ]
    },
    {
      "name": "Cube.025",
      "primitives": [
        {
          "attributes": {
            "POSITION": 8,
            "NORMAL": 9,
            "TEXCOORD_0": 10
          },
          "indices": 11,
          "material": 2
        }
      ]
    },
    {
      "name": "Cube.026",
      "primitives": [
        {
          "attributes": {
            "POSITION": 12,
            "NORMAL": 13,
            "TEXCOORD_0": 14
          },
          "indices": 7,
          "material": 1
        }
      ]
    },
    {
      "name": "Cube.027",
      "primitives": [
        {
          "attributes": {
            "POSITION": 15,
            "NORMAL": 16,
            "TEXCOORD_0": 17
          },
          "indices": 11,
          "material": 2
        }
      ]
    },
    {
      "name": "Cube.028",
      "primitives": [
        {
          "attributes": {
            "POSITION": 18,
            "NORMAL": 19,
            "TEXCOORD_0": 20
          },
          "indices": 7,
          "material": 1
        }
      ]
    },
    {
      "name": "Cube.029",
      "primitives": [
        {
          "attributes": {
            "POSITION": 21,
            "NORMAL": 22,
            "TEXCOORD_0": 23
          },
          "indices": 11,
          "material": 2
        }
      ]
    },
    {
      "name": "Cube.030",
      "primitives": [
        {
          "attributes": {
            "POSITION": 24,
            "NORMAL": 25,
            "TEXCOORD_0": 26
          },
          "indices": 27,
          "material": 0
        }
      ]
    },
    {
      "name": "Cube.031",
      "primitives": [
        {
          "attributes": {
            "POSITION": 28,
            "NORMAL": 29,
            "TEXCOORD_0": 30
          },
          "indices": 31,
          "material": 3
        }
      ]
    },
    {
      "name": "Cube.033",
      "primitives": [
        {
          "attributes": {
            "POSITION": 32,
            "NORMAL": 33,
            "TEXCOORD_0": 34
          },
          "indices": 35,
          "material": 4
        }
      ]
    },
    {
      "name": "Cylinder.004",
      "primitives": [
        {
          "attributes": {
            "POSITION": 36,
            "NORMAL": 37,
            "TEXCOORD_0": 38
          },
          "indices": 39,
          "material": 0
        }
      ]
    },
    {
      "name": "Cylinder.005",
      "primitives": [
        {
          "attributes": {
            "POSITION": 40,
            "NORMAL": 41,
            "TEXCOORD_0": 42
          },
          "indices": 39,
          "material": 0
        }
      ]
    },
    {
      "name": "Text",
      "primitives": [
        {
          "attributes": {
            "POSITION": 43,
            "NORMAL": 44,
            "TEXCOORD_0": 45
          },
          "indices": 46,
          "material": 5
        }
      ]
    }
  ],
  "accessors": [
    {
      "bufferView": 0,
      "componentType": 5126,
      "count": 613,
      "max": [
        1,
        1.603048324584961,
        1
      ],
      "min": [
        -1,
        -1,
        -1
      ],
      "type": "VEC3"
    },
    {
      "bufferView": 1,
      "componentType": 5126,
      "count": 613,
      "type": "VEC3"
    },
    {
      "bufferView": 2,
      "componentType": 5126,
      "count": 613,
      "type": "VEC2"
    },
    {
      "bufferView": 3,
      "componentType": 5123,
      "count": 2292,
      "type": "SCALAR"
    },
    {
      "bufferView": 4,
      "componentType": 5126,
      "count": 395,
      "max": [
        1.3907623291015625,
        1.674843668937683,
        1
      ],
      "min": [
        -1.3907623291015625,
        0.864876925945282,
        -1
      ],
      "type": "VEC3"
    },
    {
      "bufferView": 5,
      "componentType": 5126,
      "count": 395,
      "type": "VEC3"
    },
    {
      "bufferView": 6,
      "componentType": 5126,
      "count": 395,
      "type": "VEC2"
    },
    {
      "bufferView": 7,
      "componentType": 5123,
      "count": 2160,
      "type": "SCALAR"
    },
    {
      "bufferView": 8,
      "componentType": 5126,
      "count": 464,
      "max": [
        1,
        1.4883389472961426,
        1
      ],
      "min": [
        -1,
        -1,
        -1
      ],
      "type": "VEC3"
    },
    {
      "bufferView": 9,
      "componentType": 5126,
      "count": 464,
      "type": "VEC3"
    },
    {
      "bufferView": 10,
      "componentType": 5126,
      "count": 464,
      "type": "VEC2"
    },
    {
      "bufferView": 11,
      "componentType": 5123,
      "count": 2292,
      "type": "SCALAR"
    },
    {
      "bufferView": 12,
      "componentType": 5126,
      "count": 395,
      "max": [
        1.3907623291015625,
        1.674843668937683,
        1
      ],
      "min": [
        -1.3907623291015625,
        0.864876925945282,
        -1
      ],
      "type": "VEC3"
    },
    {
      "bufferView": 13,
      "componentType": 5126,
      "count": 395,
      "type": "VEC3"
    },
    {
      "bufferView": 14,
      "componentType": 5126,
      "count": 395,
      "type": "VEC2"
    },
    {
      "bufferView": 15,
      "componentType": 5126,
      "count": 464,
      "max": [
        1,
        1.4883389472961426,
        1
      ],
      "min": [
        -1,
        -1,
        -1
      ],
      "type": "VEC3"
    },
    {
      "bufferView": 16,
      "componentType": 5126,
      "count": 464,
      "type": "VEC3"
    },
    {
      "bufferView": 17,
      "componentType": 5126,
      "count": 464,
      "type": "VEC2"
    },
    {
      "bufferView": 18,
      "componentType": 5126,
      "count": 395,
      "max": [
        1.3907623291015625,
        1.674843668937683,
        1
      ],
      "min": [
        -1.3907623291015625,
        0.864876925945282,
        -1
      ],
      "type": "VEC3"
    },
    {
      "bufferView": 19,
      "componentType": 5126,
      "count": 395,
      "type": "VEC3"
    },
    {
      "bufferView": 20,
      "componentType": 5126,
      "count": 395,
      "type": "VEC2"
    },
    {
      "bufferView": 21,
      "componentType": 5126,
      "count": 464,
      "max": [
        1,
        1.4883389472961426,
        1
      ],
      "min": [
        -1,
        -1,
        -1
      ],
      "type": "VEC3"
    },
    {
      "bufferView": 22,
      "componentType": 5126,
      "count": 464,
      "type": "VEC3"
    },
    {
      "bufferView": 23,
      "componentType": 5126,
      "count": 464,
      "type": "VEC2"
    },
    {
      "bufferView": 24,
      "componentType": 5126,
      "count": 190,
      "max": [
        1,
        1,
        1
      ],
      "min": [
        -1,
        -1,
        -1
      ],
      "type": "VEC3"
    },
    {
      "bufferView": 25,
      "componentType": 5126,
      "count": 190,
      "type": "VEC3"
    },
    {
      "bufferView": 26,
      "componentType": 5126,
      "count": 190,
      "type": "VEC2"
    },
    {
      "bufferView": 27,
      "componentType": 5123,
      "count": 900,
      "type": "SCALAR"
    },
    {
      "bufferView": 28,
      "componentType": 5126,
      "count": 2556,
      "max": [
        3.1515111923217773,
        1,
        1
      ],
      "min": [
        -1.1515110731124878,
        -1,
        -1
      ],
      "type": "VEC3"
    },
    {
      "bufferView": 29,
      "componentType": 5126,
      "count": 2556,
      "type": "VEC3"
    },
    {
      "bufferView": 30,
      "componentType": 5126,
      "count": 2556,
      "type": "VEC2"
    },
    {
      "bufferView": 31,
      "componentType": 5123,
      "count": 14508,
      "type": "SCALAR"
    },
    {
      "bufferView": 32,
      "componentType": 5126,
      "count": 8,
      "max": [
        2.917764186859131,
        0.972588062286377,
        0.2978215217590332
      ],
      "min": [
        -0.972588062286377,
        -0.972588062286377,
        0.2978215217590332
      ],
      "type": "VEC3"
    },
    {
      "bufferView": 33,
      "componentType": 5126,
      "count": 8,
      "type": "VEC3"
    },
    {
      "bufferView": 34,
      "componentType": 5126,
      "count": 8,
      "type": "VEC2"
    },
    {
      "bufferView": 35,
      "componentType": 5123,
      "count": 12,
      "type": "SCALAR"
    },
    {
      "bufferView": 36,
      "componentType": 5126,
      "count": 292,
      "max": [
        1,
        1,
        1
      ],
      "min": [
        -1.0203813314437866,
        -1,
        -1
      ],
      "type": "VEC3"
    },
    {
      "bufferView": 37,
      "componentType": 5126,
      "count": 292,
      "type": "VEC3"
    },
    {
      "bufferView": 38,
      "componentType": 5126,
      "count": 292,
      "type": "VEC2"
    },
    {
      "bufferView": 39,
      "componentType": 5123,
      "count": 1332,
      "type": "SCALAR"
    },
    {
      "bufferView": 40,
      "componentType": 5126,
      "count": 292,
      "max": [
        1,
        1,
        1
      ],
      "min": [
        -1.0203813314437866,
        -1,
        -1
      ],
      "type": "VEC3"
    },
    {
      "bufferView": 41,
      "componentType": 5126,
      "count": 292,
      "type": "VEC3"
    },
    {
      "bufferView": 42,
      "componentType": 5126,
      "count": 292,
      "type": "VEC2"
    },
    {
      "bufferView": 43,
      "componentType": 5126,
      "count": 144,
      "max": [
        0.9300000667572021,
        0.10551862418651581,
        0
      ],
      "min": [
        0.020000001415610313,
        0,
        -0.7280000448226929
      ],
      "type": "VEC3"
    },
    {
      "bufferView": 44,
      "componentType": 5126,
      "count": 144,
      "type": "VEC3"
    },
    {
      "bufferView": 45,
      "componentType": 5126,
      "count": 144,
      "type": "VEC2"
    },
    {
      "bufferView": 46,
      "componentType": 5123,
      "count": 252,
      "type": "SCALAR"
    }
  ],
  "bufferViews": [
    {
      "buffer": 0,
      "byteLength": 7356,
      "byteOffset": 0,
      "target": 34962
    },
    {
      "buffer": 0,
      "byteLength": 7356,
      "byteOffset": 7356,
      "target": 34962
    },
    {
      "buffer": 0,
      "byteLength": 4904,
      "byteOffset": 14712,
      "target": 34962
    },
    {
      "buffer": 0,
      "byteLength": 4584,
      "byteOffset": 19616,
      "target": 34963
    },
    {
      "buffer": 0,
      "byteLength": 4740,
      "byteOffset": 24200,
      "target": 34962
    },
    {
      "buffer": 0,
      "byteLength": 4740,
      "byteOffset": 28940,
      "target": 34962
    },
    {
      "buffer": 0,
      "byteLength": 3160,
      "byteOffset": 33680,
      "target": 34962
    },
    {
      "buffer": 0,
      "byteLength": 4320,
      "byteOffset": 36840,
      "target": 34963
    },
    {
      "buffer": 0,
      "byteLength": 5568,
      "byteOffset": 41160,
      "target": 34962
    },
    {
      "buffer": 0,
      "byteLength": 5568,
      "byteOffset": 46728,
      "target": 34962
    },
    {
      "buffer": 0,
      "byteLength": 3712,
      "byteOffset": 52296,
      "target": 34962
    },
    {
      "buffer": 0,
      "byteLength": 4584,
      "byteOffset": 56008,
      "target": 34963
    },
    {
      "buffer": 0,
      "byteLength": 4740,
      "byteOffset": 60592,
      "target": 34962
    },
    {
      "buffer": 0,
      "byteLength": 4740,
      "byteOffset": 65332,
      "target": 34962
    },
    {
      "buffer": 0,
      "byteLength": 3160,
      "byteOffset": 70072,
      "target": 34962
    },
    {
      "buffer": 0,
      "byteLength": 5568,
      "byteOffset": 73232,
      "target": 34962
    },
    {
      "buffer": 0,
      "byteLength": 5568,
      "byteOffset": 78800,
      "target": 34962
    },
    {
      "buffer": 0,
      "byteLength": 3712,
      "byteOffset": 84368,
      "target": 34962
    },
    {
      "buffer": 0,
      "byteLength": 4740,
      "byteOffset": 88080,
      "target": 34962
    },
    {
      "buffer": 0,
      "byteLength": 4740,
      "byteOffset": 92820,
      "target": 34962
    },
    {
      "buffer": 0,
      "byteLength": 3160,
      "byteOffset": 97560,
      "target": 34962
    },
    {
      "buffer": 0,
      "byteLength": 5568,
      "byteOffset": 100720,
      "target": 34962
    },
    {
      "buffer": 0,
      "byteLength": 5568,
      "byteOffset": 106288,
      "target": 34962
    },
    {
      "buffer": 0,
      "byteLength": 3712,
      "byteOffset": 111856,
      "target": 34962
    },
    {
      "buffer": 0,
      "byteLength": 2280,
      "byteOffset": 115568,
      "target": 34962
    },
    {
      "buffer": 0,
      "byteLength": 2280,
      "byteOffset": 117848,
      "target": 34962
    },
    {
      "buffer": 0,
      "byteLength": 1520,
      "byteOffset": 120128,
      "target": 34962
    },
    {
      "buffer": 0,
      "byteLength": 1800,
      "byteOffset": 121648,
      "target": 34963
    },
    {
      "buffer": 0,
      "byteLength": 30672,
      "byteOffset": 123448,
      "target": 34962
    },
    {
      "buffer": 0,
      "byteLength": 30672,
      "byteOffset": 154120,
      "target": 34962
    },
    {
      "buffer": 0,
      "byteLength": 20448,
      "byteOffset": 184792,
      "target": 34962
    },
    {
      "buffer": 0,
      "byteLength": 29016,
      "byteOffset": 205240,
      "target": 34963
    },
    {
      "buffer": 0,
      "byteLength": 96,
      "byteOffset": 234256,
      "target": 34962
    },
    {
      "buffer": 0,
      "byteLength": 96,
      "byteOffset": 234352,
      "target": 34962
    },
    {
      "buffer": 0,
      "byteLength": 64,
      "byteOffset": 234448,
      "target": 34962
    },
    {
      "buffer": 0,
      "byteLength": 24,
      "byteOffset": 234512,
      "target": 34963
    },
    {
      "buffer": 0,
      "byteLength": 3504,
      "byteOffset": 234536,
      "target": 34962
    },
    {
      "buffer": 0,
      "byteLength": 3504,
      "byteOffset": 238040,
      "target": 34962
    },
    {
      "buffer": 0,
      "byteLength": 2336,
      "byteOffset": 241544,
      "target": 34962
    },
    {
      "buffer": 0,
      "byteLength": 2664,
      "byteOffset": 243880,
      "target": 34963
    },
    {
      "buffer": 0,
      "byteLength": 3504,
      "byteOffset": 246544,
      "target": 34962
    },
    {
      "buffer": 0,
      "byteLength": 3504,
      "byteOffset": 250048,
      "target": 34962
    },
    {
      "buffer": 0,
      "byteLength": 2336,
      "byteOffset": 253552,
      "target": 34962
    },
    {
      "buffer": 0,
      "byteLength": 1728,
      "byteOffset": 255888,
      "target": 34962
    },
    {
      "buffer": 0,
      "byteLength": 1728,
      "byteOffset": 257616,
      "target": 34962
    },
    {
      "buffer": 0,
      "byteLength": 1152,
      "byteOffset": 259344,
      "target": 34962
    },
    {
      "buffer": 0,
      "byteLength": 504,
      "byteOffset": 260496,
      "target": 34963
    }
  ],
  "buffers": [
    {
      "uri": "bank_data.bin",
      "byteLength": 261000
    }
  ]
}