<svg width="24" height="20" viewBox="0 0 24 20" fill="none" xmlns="http://www.w3.org/2000/svg">
<mask id="path-1-outside-1_1078_25559" maskUnits="userSpaceOnUse" x="-1" y="5" width="10" height="11" fill="black">
<rect fill="white" x="-1" y="5" width="10" height="11"/>
<path d="M6.984 8.916C6.984 9.06 6.772 9.392 6.348 9.912C5.924 10.432 5.288 11.136 4.44 12.024H6.972C7.06 12.024 7.132 12.144 7.188 12.384C7.252 12.616 7.284 12.948 7.284 13.38C7.284 13.804 7.232 14.18 7.128 14.508C7.032 14.836 6.9 15 6.732 15H0.888C0.656 15 0.488 14.768 0.384 14.304C0.288 13.84 0.24 13.336 0.24 12.792C0.24 12.672 0.464 12.344 0.912 11.808C1.36 11.272 2.036 10.524 2.94 9.564H0.612C0.396 9.564 0.288 9.216 0.288 8.52C0.288 8.032 0.34 7.572 0.444 7.14C0.548 6.7 0.68 6.48 0.84 6.48H6.372C6.78 6.48 6.984 7.292 6.984 8.916Z"/>
</mask>
<path d="M6.984 8.916C6.984 9.06 6.772 9.392 6.348 9.912C5.924 10.432 5.288 11.136 4.44 12.024H6.972C7.06 12.024 7.132 12.144 7.188 12.384C7.252 12.616 7.284 12.948 7.284 13.38C7.284 13.804 7.232 14.18 7.128 14.508C7.032 14.836 6.9 15 6.732 15H0.888C0.656 15 0.488 14.768 0.384 14.304C0.288 13.84 0.24 13.336 0.24 12.792C0.24 12.672 0.464 12.344 0.912 11.808C1.36 11.272 2.036 10.524 2.94 9.564H0.612C0.396 9.564 0.288 9.216 0.288 8.52C0.288 8.032 0.34 7.572 0.444 7.14C0.548 6.7 0.68 6.48 0.84 6.48H6.372C6.78 6.48 6.984 7.292 6.984 8.916Z" fill="#FCFCFC"/>
<path d="M6.348 9.912L7.12302 10.5439V10.5439L6.348 9.912ZM4.44 12.024L3.71679 11.3334L2.10232 13.024H4.44V12.024ZM7.188 12.384L6.21416 12.6112L6.2187 12.6307L6.22401 12.6499L7.188 12.384ZM7.128 14.508L6.17477 14.2058L6.1714 14.2164L6.16826 14.2271L7.128 14.508ZM0.384 14.304L-0.59526 14.5066L-0.593591 14.5147L-0.59179 14.5227L0.384 14.304ZM0.912 11.808L1.67928 12.4493H1.67928L0.912 11.808ZM2.94 9.564L3.66802 10.2496L5.25525 8.564H2.94V9.564ZM0.444 7.14L1.41623 7.37406L1.41718 7.37003L0.444 7.14ZM5.984 8.916C5.984 8.81691 6.00131 8.74445 6.01047 8.71143C6.02044 8.67552 6.02974 8.65467 6.03076 8.6524C6.03195 8.64971 6.02047 8.67485 5.98218 8.73481C5.90638 8.85352 5.77497 9.03234 5.57298 9.28006L7.12302 10.5439C7.34503 10.2717 7.53163 10.0245 7.66782 9.81119C7.73554 9.70515 7.80355 9.58779 7.85775 9.4661C7.90249 9.36563 7.984 9.16353 7.984 8.916H5.984ZM5.57298 9.28006C5.17375 9.76969 4.5589 10.4515 3.71679 11.3334L5.16321 12.7146C6.0171 11.8205 6.67425 11.0943 7.12302 10.5439L5.57298 9.28006ZM4.44 13.024H6.972V11.024H4.44V13.024ZM6.972 13.024C6.49092 13.024 6.26691 12.6825 6.23451 12.6285C6.19117 12.5563 6.19471 12.5279 6.21416 12.6112L8.16184 12.1568C8.1253 12.0001 8.06483 11.7917 7.94949 11.5995C7.84509 11.4255 7.54108 11.024 6.972 11.024V13.024ZM6.22401 12.6499C6.2523 12.7525 6.284 12.9787 6.284 13.38H8.284C8.284 12.9173 8.2517 12.4795 8.15199 12.1181L6.22401 12.6499ZM6.284 13.38C6.284 13.7243 6.24155 13.9951 6.17477 14.2058L8.08123 14.8102C8.22245 14.3649 8.284 13.8837 8.284 13.38H6.284ZM6.16826 14.2271C6.13699 14.3339 6.1261 14.3145 6.17799 14.25C6.20885 14.2116 6.27048 14.1471 6.37158 14.0918C6.47847 14.0334 6.60332 14 6.732 14V16C7.19369 16 7.53277 15.7565 7.73601 15.504C7.9199 15.2755 8.02301 15.0101 8.08774 14.7889L6.16826 14.2271ZM6.732 14H0.888V16H6.732V14ZM0.888 14C1.00557 14 1.12474 14.0317 1.22772 14.0915C1.32411 14.1474 1.37691 14.2104 1.39794 14.2395C1.41813 14.2674 1.41732 14.275 1.4054 14.2445C1.39404 14.2154 1.37753 14.1644 1.35979 14.0853L-0.59179 14.5227C-0.527152 14.8111 -0.42134 15.1372 -0.221942 15.4125C0.000660347 15.7199 0.375405 16 0.888 16V14ZM1.36326 14.1014C1.2829 13.713 1.24 13.2777 1.24 12.792H-0.76C-0.76 13.3943 -0.706901 13.967 -0.59526 14.5066L1.36326 14.1014ZM1.24 12.792C1.24 12.9211 1.21215 13.0137 1.20137 13.0468C1.18842 13.0866 1.17686 13.1093 1.17643 13.1102C1.17607 13.1109 1.19039 13.0835 1.2338 13.02C1.31889 12.8954 1.46302 12.708 1.67928 12.4493L0.144718 11.1667C-0.0870245 11.444 -0.278887 11.6886 -0.417801 11.892C-0.486386 11.9925 -0.556067 12.1031 -0.612427 12.2158C-0.650181 12.2913 -0.76 12.5132 -0.76 12.792H1.24ZM1.67928 12.4493C2.10805 11.9363 2.76795 11.2054 3.66802 10.2496L2.21198 8.87845C1.30405 9.84261 0.61195 10.6077 0.144718 11.1667L1.67928 12.4493ZM2.94 8.564H0.612V10.564H2.94V8.564ZM0.612 8.564C0.72371 8.564 0.841659 8.5875 0.954206 8.63931C1.06463 8.69014 1.14617 8.75721 1.20214 8.81733C1.25641 8.87562 1.2873 8.92783 1.30278 8.95776C1.3109 8.97346 1.31619 8.98576 1.31931 8.99357C1.32244 9.00143 1.32388 9.006 1.32406 9.0066C1.32424 9.00717 1.32111 8.997 1.31666 8.97313C1.31229 8.94964 1.30741 8.91701 1.30294 8.87385C1.2939 8.78647 1.288 8.66997 1.288 8.52H-0.712C-0.712 8.89464 -0.685823 9.27795 -0.586064 9.5994C-0.504573 9.86198 -0.20179 10.564 0.612 10.564V8.564ZM1.288 8.52C1.288 8.1032 1.33238 7.72232 1.41622 7.37405L-0.528224 6.90595C-0.652382 7.42168 -0.712 7.9608 -0.712 8.52H1.288ZM1.41718 7.37003C1.46063 7.18622 1.49111 7.13846 1.47849 7.1595C1.47007 7.17353 1.42571 7.24556 1.327 7.31993C1.2159 7.40364 1.04736 7.48 0.84 7.48V5.48C0.23236 5.48 -0.104193 5.91 -0.236493 6.1305C-0.381113 6.37154 -0.468628 6.65377 -0.529185 6.90997L1.41718 7.37003ZM0.84 7.48H6.372V5.48H0.84V7.48ZM6.372 7.48C6.08327 7.48 5.90204 7.31489 5.84117 7.23414C5.80167 7.18172 5.82432 7.18612 5.86114 7.33266C5.93226 7.61573 5.984 8.12459 5.984 8.916H7.984C7.984 8.08341 7.93374 7.37427 7.80086 6.84534C7.73568 6.58588 7.63084 6.28578 7.43833 6.03036C7.22446 5.7466 6.86473 5.48 6.372 5.48V7.48Z" fill="#67EB00" mask="url(#path-1-outside-1_1078_25559)"/>
<mask id="path-3-outside-2_1078_25559" maskUnits="userSpaceOnUse" x="7" y="5" width="10" height="11" fill="black">
<rect fill="white" x="7" y="5" width="10" height="11"/>
<path d="M14.984 8.916C14.984 9.06 14.772 9.392 14.348 9.912C13.924 10.432 13.288 11.136 12.44 12.024H14.972C15.06 12.024 15.132 12.144 15.188 12.384C15.252 12.616 15.284 12.948 15.284 13.38C15.284 13.804 15.232 14.18 15.128 14.508C15.032 14.836 14.9 15 14.732 15H8.888C8.656 15 8.488 14.768 8.384 14.304C8.288 13.84 8.24 13.336 8.24 12.792C8.24 12.672 8.464 12.344 8.912 11.808C9.36 11.272 10.036 10.524 10.94 9.564H8.612C8.396 9.564 8.288 9.216 8.288 8.52C8.288 8.032 8.34 7.572 8.444 7.14C8.548 6.7 8.68 6.48 8.84 6.48H14.372C14.78 6.48 14.984 7.292 14.984 8.916Z"/>
</mask>
<path d="M14.984 8.916C14.984 9.06 14.772 9.392 14.348 9.912C13.924 10.432 13.288 11.136 12.44 12.024H14.972C15.06 12.024 15.132 12.144 15.188 12.384C15.252 12.616 15.284 12.948 15.284 13.38C15.284 13.804 15.232 14.18 15.128 14.508C15.032 14.836 14.9 15 14.732 15H8.888C8.656 15 8.488 14.768 8.384 14.304C8.288 13.84 8.24 13.336 8.24 12.792C8.24 12.672 8.464 12.344 8.912 11.808C9.36 11.272 10.036 10.524 10.94 9.564H8.612C8.396 9.564 8.288 9.216 8.288 8.52C8.288 8.032 8.34 7.572 8.444 7.14C8.548 6.7 8.68 6.48 8.84 6.48H14.372C14.78 6.48 14.984 7.292 14.984 8.916Z" fill="#FCFCFC"/>
<path d="M14.348 9.912L15.123 10.5439V10.5439L14.348 9.912ZM12.44 12.024L11.7168 11.3334L10.1023 13.024H12.44V12.024ZM15.188 12.384L14.2142 12.6112L14.2187 12.6307L14.224 12.6499L15.188 12.384ZM15.128 14.508L14.1748 14.2058L14.1714 14.2164L14.1683 14.2271L15.128 14.508ZM8.384 14.304L7.40474 14.5066L7.40641 14.5147L7.40821 14.5227L8.384 14.304ZM8.912 11.808L9.67928 12.4493H9.67928L8.912 11.808ZM10.94 9.564L11.668 10.2496L13.2553 8.564H10.94V9.564ZM8.444 7.14L9.41623 7.37406L9.41718 7.37003L8.444 7.14ZM13.984 8.916C13.984 8.81691 14.0013 8.74445 14.0105 8.71143C14.0204 8.67552 14.0297 8.65467 14.0308 8.6524C14.032 8.64971 14.0205 8.67485 13.9822 8.73481C13.9064 8.85352 13.775 9.03234 13.573 9.28006L15.123 10.5439C15.345 10.2717 15.5316 10.0245 15.6678 9.81119C15.7355 9.70515 15.8035 9.58779 15.8577 9.4661C15.9025 9.36563 15.984 9.16353 15.984 8.916H13.984ZM13.573 9.28006C13.1737 9.76969 12.5589 10.4515 11.7168 11.3334L13.1632 12.7146C14.0171 11.8205 14.6743 11.0943 15.123 10.5439L13.573 9.28006ZM12.44 13.024H14.972V11.024H12.44V13.024ZM14.972 13.024C14.4909 13.024 14.2669 12.6825 14.2345 12.6285C14.1912 12.5563 14.1947 12.5279 14.2142 12.6112L16.1618 12.1568C16.1253 12.0001 16.0648 11.7917 15.9495 11.5995C15.8451 11.4255 15.5411 11.024 14.972 11.024V13.024ZM14.224 12.6499C14.2523 12.7525 14.284 12.9787 14.284 13.38H16.284C16.284 12.9173 16.2517 12.4795 16.152 12.1181L14.224 12.6499ZM14.284 13.38C14.284 13.7243 14.2416 13.9951 14.1748 14.2058L16.0812 14.8102C16.2224 14.3649 16.284 13.8837 16.284 13.38H14.284ZM14.1683 14.2271C14.137 14.3339 14.1261 14.3145 14.178 14.25C14.2088 14.2116 14.2705 14.1471 14.3716 14.0918C14.4785 14.0334 14.6033 14 14.732 14V16C15.1937 16 15.5328 15.7565 15.736 15.504C15.9199 15.2755 16.023 15.0101 16.0877 14.7889L14.1683 14.2271ZM14.732 14H8.888V16H14.732V14ZM8.888 14C9.00557 14 9.12474 14.0317 9.22772 14.0915C9.32411 14.1474 9.37691 14.2104 9.39794 14.2395C9.41813 14.2674 9.41732 14.275 9.4054 14.2445C9.39404 14.2154 9.37753 14.1644 9.35979 14.0853L7.40821 14.5227C7.47285 14.8111 7.57866 15.1372 7.77806 15.4125C8.00066 15.7199 8.37541 16 8.888 16V14ZM9.36326 14.1014C9.2829 13.713 9.24 13.2777 9.24 12.792H7.24C7.24 13.3943 7.2931 13.967 7.40474 14.5066L9.36326 14.1014ZM9.24 12.792C9.24 12.9211 9.21215 13.0137 9.20137 13.0468C9.18842 13.0866 9.17686 13.1093 9.17643 13.1102C9.17607 13.1109 9.19039 13.0835 9.2338 13.02C9.31889 12.8954 9.46302 12.708 9.67928 12.4493L8.14472 11.1667C7.91298 11.444 7.72111 11.6886 7.5822 11.892C7.51361 11.9925 7.44393 12.1031 7.38757 12.2158C7.34982 12.2913 7.24 12.5132 7.24 12.792H9.24ZM9.67928 12.4493C10.108 11.9363 10.7679 11.2054 11.668 10.2496L10.212 8.87845C9.30405 9.84261 8.61195 10.6077 8.14472 11.1667L9.67928 12.4493ZM10.94 8.564H8.612V10.564H10.94V8.564ZM8.612 8.564C8.72371 8.564 8.84166 8.5875 8.95421 8.63931C9.06463 8.69014 9.14617 8.75721 9.20214 8.81733C9.25641 8.87562 9.2873 8.92783 9.30278 8.95776C9.3109 8.97346 9.31619 8.98576 9.31931 8.99357C9.32244 9.00143 9.32388 9.006 9.32406 9.0066C9.32424 9.00717 9.32111 8.997 9.31666 8.97313C9.31229 8.94964 9.30741 8.91701 9.30294 8.87385C9.2939 8.78647 9.288 8.66997 9.288 8.52H7.288C7.288 8.89464 7.31418 9.27795 7.41394 9.5994C7.49543 9.86198 7.79821 10.564 8.612 10.564V8.564ZM9.288 8.52C9.288 8.1032 9.33238 7.72232 9.41622 7.37405L7.47178 6.90595C7.34762 7.42168 7.288 7.9608 7.288 8.52H9.288ZM9.41718 7.37003C9.46063 7.18622 9.49111 7.13846 9.47849 7.1595C9.47007 7.17353 9.42571 7.24556 9.327 7.31993C9.2159 7.40364 9.04736 7.48 8.84 7.48V5.48C8.23236 5.48 7.89581 5.91 7.76351 6.1305C7.61889 6.37154 7.53137 6.65377 7.47082 6.90997L9.41718 7.37003ZM8.84 7.48H14.372V5.48H8.84V7.48ZM14.372 7.48C14.0833 7.48 13.902 7.31489 13.8412 7.23414C13.8017 7.18172 13.8243 7.18612 13.8611 7.33266C13.9323 7.61573 13.984 8.12459 13.984 8.916H15.984C15.984 8.08341 15.9337 7.37427 15.8009 6.84534C15.7357 6.58588 15.6308 6.28578 15.4383 6.03036C15.2245 5.7466 14.8647 5.48 14.372 5.48V7.48Z" fill="#F0E92D" mask="url(#path-3-outside-2_1078_25559)"/>
<mask id="path-5-outside-3_1078_25559" maskUnits="userSpaceOnUse" x="15" y="5" width="9" height="11" fill="black">
<rect fill="white" x="15" y="5" width="9" height="11"/>
<path d="M19.828 14.652C19.828 14.772 19.568 14.86 19.048 14.916C18.536 14.972 18.048 15 17.584 15C17.12 15 16.82 14.972 16.684 14.916C16.548 14.86 16.48 14.772 16.48 14.652V7.044C16.48 6.836 16.584 6.688 16.792 6.6C17 6.512 17.392 6.468 17.968 6.468H22.42C22.588 6.468 22.672 6.772 22.672 7.38C22.672 7.98 22.632 8.44 22.552 8.76C22.48 9.072 22.384 9.228 22.264 9.228L19.828 9.108V9.924C20.892 9.876 21.604 9.852 21.964 9.852C22.084 9.852 22.164 9.916 22.204 10.044C22.252 10.172 22.276 10.42 22.276 10.788C22.276 11.148 22.236 11.496 22.156 11.832C22.076 12.16 21.964 12.324 21.82 12.324L19.828 12.252V14.652Z"/>
</mask>
<path d="M19.828 14.652C19.828 14.772 19.568 14.86 19.048 14.916C18.536 14.972 18.048 15 17.584 15C17.12 15 16.82 14.972 16.684 14.916C16.548 14.86 16.48 14.772 16.48 14.652V7.044C16.48 6.836 16.584 6.688 16.792 6.6C17 6.512 17.392 6.468 17.968 6.468H22.42C22.588 6.468 22.672 6.772 22.672 7.38C22.672 7.98 22.632 8.44 22.552 8.76C22.48 9.072 22.384 9.228 22.264 9.228L19.828 9.108V9.924C20.892 9.876 21.604 9.852 21.964 9.852C22.084 9.852 22.164 9.916 22.204 10.044C22.252 10.172 22.276 10.42 22.276 10.788C22.276 11.148 22.236 11.496 22.156 11.832C22.076 12.16 21.964 12.324 21.82 12.324L19.828 12.252V14.652Z" fill="#FCFCFC"/>
<path d="M19.048 14.916L18.9409 13.9217L18.9393 13.9219L19.048 14.916ZM16.684 14.916L17.0647 13.9913H17.0647L16.684 14.916ZM16.792 6.6L16.4024 5.67903L16.4024 5.67903L16.792 6.6ZM22.552 8.76L21.5819 8.51746L21.5797 8.52628L21.5776 8.53514L22.552 8.76ZM22.264 9.228L22.2148 10.2268L22.2394 10.228H22.264V9.228ZM19.828 9.108L19.8772 8.10921L18.828 8.05753V9.108H19.828ZM19.828 9.924H18.828V10.9701L19.8731 10.923L19.828 9.924ZM22.204 10.044L21.2495 10.3423L21.2579 10.369L21.2677 10.3951L22.204 10.044ZM22.156 11.832L23.1275 12.069L23.1288 12.0636L22.156 11.832ZM21.82 12.324L21.7839 13.3233L21.8019 13.324H21.82V12.324ZM19.828 12.252L19.8641 11.2527L18.828 11.2152V12.252H19.828ZM18.828 14.652C18.828 14.2725 19.0469 14.0412 19.1546 13.9551C19.209 13.9115 19.2545 13.8872 19.2766 13.8763C19.2889 13.8703 19.2982 13.8663 19.3038 13.8641C19.3067 13.8629 19.3088 13.8621 19.3102 13.8616C19.3116 13.861 19.3124 13.8608 19.3124 13.8608C19.3124 13.8608 19.3119 13.861 19.3106 13.8614C19.3094 13.8617 19.3076 13.8623 19.3052 13.863C19.3003 13.8644 19.2934 13.8662 19.2843 13.8685C19.2658 13.873 19.2406 13.8785 19.2077 13.8846C19.1412 13.8969 19.0533 13.9096 18.9409 13.9217L19.1551 15.9103C19.435 15.8801 19.7176 15.8351 19.9536 15.7552C20.0669 15.7169 20.2406 15.6476 20.4039 15.5169C20.5766 15.3788 20.828 15.0915 20.828 14.652H18.828ZM18.9393 13.9219C18.4595 13.9744 18.008 14 17.584 14V16C18.088 16 18.6125 15.9696 19.1567 15.9101L18.9393 13.9219ZM17.584 14C17.3684 14 17.2113 13.9933 17.1039 13.9833C17.0507 13.9784 17.0197 13.9735 17.0059 13.9708C16.9875 13.9673 17.0143 13.9705 17.0647 13.9913L16.3033 15.8407C16.5163 15.9284 16.7501 15.959 16.9181 15.9747C17.1107 15.9927 17.3356 16 17.584 16V14ZM17.0647 13.9913C17.108 14.0091 17.2201 14.0643 17.3223 14.1966C17.4346 14.3418 17.48 14.5093 17.48 14.652H15.48C15.48 14.9147 15.5594 15.1862 15.7397 15.4194C15.9099 15.6397 16.124 15.7669 16.3033 15.8407L17.0647 13.9913ZM17.48 14.652V7.044H15.48V14.652H17.48ZM17.48 7.044C17.48 7.11389 17.4596 7.23323 17.3762 7.35194C17.2967 7.46506 17.2074 7.51007 17.1816 7.52097L16.4024 5.67903C16.1686 5.77793 15.9233 5.94094 15.7398 6.20205C15.5524 6.46877 15.48 6.76611 15.48 7.044H17.48ZM17.1816 7.52097C17.1546 7.53239 17.1933 7.51275 17.3535 7.49476C17.4999 7.47833 17.702 7.468 17.968 7.468V5.468C17.4043 5.468 16.8201 5.5023 16.4024 5.67903L17.1816 7.52097ZM17.968 7.468H22.42V5.468H17.968V7.468ZM22.42 7.468C22.2837 7.468 22.1456 7.4356 22.0198 7.37055C21.8982 7.30768 21.8141 7.22798 21.7604 7.16319C21.708 7.09999 21.6792 7.04479 21.6653 7.01455C21.6509 6.98341 21.6455 6.96384 21.6451 6.96234C21.645 6.96195 21.6532 6.99385 21.6605 7.07272C21.6674 7.14823 21.672 7.24938 21.672 7.38H23.672C23.672 7.05292 23.6518 6.71528 23.5729 6.42966C23.5342 6.2896 23.4598 6.07944 23.3001 5.88681C23.1156 5.66426 22.8132 5.468 22.42 5.468V7.468ZM21.672 7.38C21.672 7.95323 21.6321 8.3166 21.5819 8.51746L23.5221 9.00254C23.6319 8.5634 23.672 8.00677 23.672 7.38H21.672ZM21.5776 8.53514C21.5506 8.65205 21.5382 8.64563 21.5743 8.5869C21.5951 8.5531 21.6523 8.46872 21.764 8.38807C21.8877 8.29871 22.0608 8.228 22.264 8.228V10.228C22.8296 10.228 23.1499 9.84278 23.2777 9.6351C23.4098 9.42037 23.4814 9.17995 23.5264 8.98486L21.5776 8.53514ZM22.3132 8.22921L19.8772 8.10921L19.7788 10.1068L22.2148 10.2268L22.3132 8.22921ZM18.828 9.108V9.924H20.828V9.108H18.828ZM19.8731 10.923C20.9406 10.8748 21.6302 10.852 21.964 10.852V8.852C21.5778 8.852 20.8434 8.87717 19.7829 8.92502L19.8731 10.923ZM21.964 10.852C21.8376 10.852 21.6559 10.8142 21.4893 10.6809C21.3323 10.5552 21.2708 10.4104 21.2495 10.3423L23.1585 9.74572C23.0972 9.54962 22.9757 9.30877 22.7387 9.11913C22.4921 8.92182 22.2104 8.852 21.964 8.852V10.852ZM21.2677 10.3951C21.2537 10.3579 21.2511 10.3389 21.2533 10.3506C21.2551 10.3598 21.2588 10.3825 21.2627 10.4223C21.2705 10.5031 21.276 10.6226 21.276 10.788H23.276C23.276 10.438 23.2608 10.0142 23.1403 9.69288L21.2677 10.3951ZM21.276 10.788C21.276 11.0733 21.2444 11.3434 21.1832 11.6004L23.1288 12.0636C23.2276 11.6486 23.276 11.2227 23.276 10.788H21.276ZM21.1845 11.595C21.1559 11.7122 21.143 11.7003 21.1862 11.637C21.2119 11.5995 21.2725 11.5218 21.3826 11.4512C21.5022 11.3746 21.6539 11.324 21.82 11.324V13.324C22.3388 13.324 22.6724 13.0071 22.8378 12.765C22.993 12.5377 23.0761 12.2798 23.1275 12.069L21.1845 11.595ZM21.8561 11.3247L19.8641 11.2527L19.7919 13.2513L21.7839 13.3233L21.8561 11.3247ZM18.828 12.252V14.652H20.828V12.252H18.828Z" fill="#08B9FF" mask="url(#path-5-outside-3_1078_25559)"/>
</svg>
