{
  "asset": {
    "generator": "Khronos glTF Blender I/O v4.2.60",
    "version": "2.0"
  },
  "scene": 0,
  "scenes": [
    {
      "name": "Scene",
      "nodes": [
        0,
        1,
        2,
        3,
        4,
        5,
        6
      ]
    }
  ],
  "nodes": [
    {
      "mesh": 0,
      "name": "Bottom",
      "rotation": [
        0,
        -0.0032225416507571936,
        0,
        0.9999948143959045
      ],
      "scale": [
        0.6394580602645874,
        0.6394580602645874,
        0.6394580602645874
      ],
      "translation": [
        0.020053304731845856,
        0.42903780937194824,
        0.014415264129638672
      ]
    },
    {
      "mesh": 1,
      "name": "BodyMain",
      "rotation": [
        0,
        -0.0032225416507571936,
        0,
        0.9999948143959045
      ],
      "scale": [
        0.6394580602645874,
        0.6394580602645874,
        0.6394580602645874
      ],
      "translation": [
        0.020053304731845856,
        0.6265791654586792,
        0.01441502571105957
      ]
    },
    {
      "mesh": 2,
      "name": "Top",
      "rotation": [
        0,
        -0.0032225416507571936,
        0,
        0.9999948143959045
      ],
      "scale": [
        0.6394580602645874,
        0.6394580602645874,
        0.6394580602645874
      ],
      "translation": [
        0.020053304731845856,
        3.2065749168395996,
        0.01441502571105957
      ]
    },
    {
      "mesh": 3,
      "name": "FrontDoor",
      "rotation": [
        0,
        -0.0032225416507571936,
        0,
        0.9999948143959045
      ],
      "scale": [
        0.6394580602645874,
        0.6394580602645874,
        0.6394580602645874
      ],
      "translation": [
        0.020053304731845856,
        0.42903780937194824,
        0.014415264129638672
      ]
    },
    {
      "mesh": 4,
      "name": "SubDoor",
      "rotation": [
        0,
        -0.0032225416507571936,
        0,
        0.9999948143959045
      ],
      "scale": [
        0.6394580602645874,
        0.6394580602645874,
        0.6394580602645874
      ],
      "translation": [
        0.020053304731845856,
        0.42903780937194824,
        0.014415264129638672
      ]
    },
    {
      "mesh": 5,
      "name": "StockHead",
      "rotation": [
        -0.46783947944641113,
        -0.36743491888046265,
        -0.2147483229637146,
        0.7745972871780396
      ],
      "scale": [
        0.09773170202970505,
        0.09773167967796326,
        0.09773171693086624
      ],
      "translation": [
        0.8001502752304077,
        3.359375476837158,
        0.48553645610809326
      ]
    },
    {
      "mesh": 6,
      "name": "StockBody",
      "rotation": [
        0,
        -0.9492146968841553,
        0,
        0.31462910771369934
      ],
      "scale": [
        -0.24596171081066132,
        -0.31302177906036377,
        -0.08833834528923035
      ],
      "translation": [
        0.43224823474884033,
        2.887702465057373,
        0.8642800450325012
      ]
    }
  ],
  "materials": [
    {
      "doubleSided": true,
      "name": "NewBuilding",
      "pbrMetallicRoughness": {
        "baseColorFactor": [
          0.10092152655124664,
          0.12394776940345764,
          0.1455492526292801,
          1
        ],
        "metallicFactor": 0,
        "roughnessFactor": 0.5
      }
    },
    {
      "doubleSided": true,
      "name": "BuildingWindow",
      "pbrMetallicRoughness": {
        "baseColorFactor": [
          0.4163086712360382,
          0.8078363537788391,
          0.7881355285644531,
          1
        ],
        "metallicFactor": 0,
        "roughnessFactor": 0.5
      }
    },
    {
      "doubleSided": true,
      "name": "Window1",
      "pbrMetallicRoughness": {
        "baseColorFactor": [
          0,
          0,
          0,
          1
        ],
        "metallicFactor": 0,
        "roughnessFactor": 0.5
      }
    },
    {
      "doubleSided": true,
      "name": "Building_Wall",
      "pbrMetallicRoughness": {
        "baseColorFactor": [
          0.7888351678848267,
          0.8009926080703735,
          0.5408334732055664,
          1
        ],
        "metallicFactor": 0,
        "roughnessFactor": 0.5
      }
    },
    {
      "doubleSided": true,
      "name": "RED",
      "pbrMetallicRoughness": {
        "baseColorFactor": [
          0.801642656326294,
          0,
          0.004661246202886105,
          1
        ],
        "metallicFactor": 0,
        "roughnessFactor": 0.5
      }
    }
  ],
  "meshes": [
    {
      "name": "Plane.010",
      "primitives": [
        {
          "attributes": {
            "POSITION": 0,
            "NORMAL": 1,
            "TEXCOORD_0": 2,
            "COLOR_0": 3,
            "COLOR_1": 4
          },
          "indices": 5,
          "material": 0
        }
      ]
    },
    {
      "name": "Plane.013",
      "primitives": [
        {
          "attributes": {
            "POSITION": 6,
            "NORMAL": 7,
            "TEXCOORD_0": 8
          },
          "indices": 9,
          "material": 0
        },
        {
          "attributes": {
            "POSITION": 10,
            "NORMAL": 11,
            "TEXCOORD_0": 12
          },
          "indices": 13,
          "material": 1
        }
      ]
    },
    {
      "name": "Plane.014",
      "primitives": [
        {
          "attributes": {
            "POSITION": 14,
            "NORMAL": 15,
            "TEXCOORD_0": 16
          },
          "indices": 17
        }
      ]
    },
    {
      "name": "Plane.015",
      "primitives": [
        {
          "attributes": {
            "POSITION": 18,
            "NORMAL": 19,
            "TEXCOORD_0": 20
          },
          "indices": 21,
          "material": 2
        }
      ]
    },
    {
      "name": "Plane.016",
      "primitives": [
        {
          "attributes": {
            "POSITION": 22,
            "NORMAL": 23,
            "TEXCOORD_0": 24,
            "COLOR_0": 25,
            "COLOR_1": 26
          },
          "indices": 27,
          "material": 3
        }
      ]
    },
    {
      "name": "Cube.034",
      "primitives": [
        {
          "attributes": {
            "POSITION": 28,
            "NORMAL": 29,
            "TEXCOORD_0": 30
          },
          "indices": 31,
          "material": 4
        }
      ]
    },
    {
      "name": "Cube.023",
      "primitives": [
        {
          "attributes": {
            "POSITION": 32,
            "NORMAL": 33,
            "TEXCOORD_0": 34
          },
          "indices": 35,
          "material": 4
        }
      ]
    }
  ],
  "accessors": [
    {
      "bufferView": 0,
      "componentType": 5126,
      "count": 219,
      "max": [
        1.0729572772979736,
        0.30891984701156616,
        1.2052106857299805
      ],
      "min": [
        -1.0729572772979736,
        -0.5997850894927979,
        -1.0729572772979736
      ],
      "type": "VEC3"
    },
    {
      "bufferView": 1,
      "componentType": 5126,
      "count": 219,
      "type": "VEC3"
    },
    {
      "bufferView": 2,
      "componentType": 5126,
      "count": 219,
      "type": "VEC2"
    },
    {
      "bufferView": 3,
      "componentType": 5121,
      "count": 219,
      "normalized": true,
      "type": "VEC4"
    },
    {
      "bufferView": 4,
      "componentType": 5126,
      "count": 219,
      "type": "VEC3"
    },
    {
      "bufferView": 5,
      "componentType": 5123,
      "count": 510,
      "type": "SCALAR"
    },
    {
      "bufferView": 6,
      "componentType": 5126,
      "count": 10650,
      "max": [
        1.0630466938018799,
        4.047842502593994,
        1.0445808172225952
      ],
      "min": [
        -1.0630466938018799,
        0,
        -1
      ],
      "type": "VEC3"
    },
    {
      "bufferView": 7,
      "componentType": 5126,
      "count": 10650,
      "type": "VEC3"
    },
    {
      "bufferView": 8,
      "componentType": 5126,
      "count": 10650,
      "type": "VEC2"
    },
    {
      "bufferView": 9,
      "componentType": 5123,
      "count": 28560,
      "type": "SCALAR"
    },
    {
      "bufferView": 10,
      "componentType": 5126,
      "count": 1280,
      "max": [
        0.9741978049278259,
        3.93294358253479,
        0.9741978049278259
      ],
      "min": [
        -0.9741978049278259,
        0.09640388190746307,
        -0.9741978049278259
      ],
      "type": "VEC3"
    },
    {
      "bufferView": 11,
      "componentType": 5126,
      "count": 1280,
      "type": "VEC3"
    },
    {
      "bufferView": 12,
      "componentType": 5126,
      "count": 1280,
      "type": "VEC2"
    },
    {
      "bufferView": 13,
      "componentType": 5123,
      "count": 1920,
      "type": "SCALAR"
    },
    {
      "bufferView": 14,
      "componentType": 5126,
      "count": 48,
      "max": [
        1,
        0.1645074486732483,
        1
      ],
      "min": [
        -1,
        0,
        -1
      ],
      "type": "VEC3"
    },
    {
      "bufferView": 15,
      "componentType": 5126,
      "count": 48,
      "type": "VEC3"
    },
    {
      "bufferView": 16,
      "componentType": 5126,
      "count": 48,
      "type": "VEC2"
    },
    {
      "bufferView": 17,
      "componentType": 5123,
      "count": 84,
      "type": "SCALAR"
    },
    {
      "bufferView": 18,
      "componentType": 5126,
      "count": 12,
      "max": [
        0.3333333134651184,
        0,
        1
      ],
      "min": [
        -0.3333333134651184,
        -0.5997850894927979,
        1
      ],
      "type": "VEC3"
    },
    {
      "bufferView": 19,
      "componentType": 5126,
      "count": 12,
      "type": "VEC3"
    },
    {
      "bufferView": 20,
      "componentType": 5126,
      "count": 12,
      "type": "VEC2"
    },
    {
      "bufferView": 21,
      "componentType": 5123,
      "count": 18,
      "type": "SCALAR"
    },
    {
      "bufferView": 22,
      "componentType": 5126,
      "count": 14,
      "max": [
        1,
        0,
        1
      ],
      "min": [
        0.3333333134651184,
        -0.5997850894927979,
        1
      ],
      "type": "VEC3"
    },
    {
      "bufferView": 23,
      "componentType": 5126,
      "count": 14,
      "type": "VEC3"
    },
    {
      "bufferView": 24,
      "componentType": 5126,
      "count": 14,
      "type": "VEC2"
    },
    {
      "bufferView": 25,
      "componentType": 5121,
      "count": 14,
      "normalized": true,
      "type": "VEC4"
    },
    {
      "bufferView": 26,
      "componentType": 5126,
      "count": 14,
      "type": "VEC3"
    },
    {
      "bufferView": 27,
      "componentType": 5123,
      "count": 48,
      "type": "SCALAR"
    },
    {
      "bufferView": 28,
      "componentType": 5126,
      "count": 18,
      "max": [
        1,
        1,
        1
      ],
      "min": [
        -1,
        -1,
        -1
      ],
      "type": "VEC3"
    },
    {
      "bufferView": 29,
      "componentType": 5126,
      "count": 18,
      "type": "VEC3"
    },
    {
      "bufferView": 30,
      "componentType": 5126,
      "count": 18,
      "type": "VEC2"
    },
    {
      "bufferView": 31,
      "componentType": 5123,
      "count": 24,
      "type": "SCALAR"
    },
    {
      "bufferView": 32,
      "componentType": 5126,
      "count": 517,
      "max": [
        2.1297948360443115,
        -0.9196349382400513,
        1
      ],
      "min": [
        -1.4407424926757812,
        -1.592278242111206,
        -2.181868076324463
      ],
      "type": "VEC3"
    },
    {
      "bufferView": 33,
      "componentType": 5126,
      "count": 517,
      "type": "VEC3"
    },
    {
      "bufferView": 34,
      "componentType": 5126,
      "count": 517,
      "type": "VEC2"
    },
    {
      "bufferView": 35,
      "componentType": 5123,
      "count": 2868,
      "type": "SCALAR"
    }
  ],
  "bufferViews": [
    {
      "buffer": 0,
      "byteLength": 2628,
      "byteOffset": 0,
      "target": 34962
    },
    {
      "buffer": 0,
      "byteLength": 2628,
      "byteOffset": 2628,
      "target": 34962
    },
    {
      "buffer": 0,
      "byteLength": 1752,
      "byteOffset": 5256,
      "target": 34962
    },
    {
      "buffer": 0,
      "byteLength": 876,
      "byteOffset": 7008,
      "target": 34962
    },
    {
      "buffer": 0,
      "byteLength": 2628,
      "byteOffset": 7884,
      "target": 34962
    },
    {
      "buffer": 0,
      "byteLength": 1020,
      "byteOffset": 10512,
      "target": 34963
    },
    {
      "buffer": 0,
      "byteLength": 127800,
      "byteOffset": 11532,
      "target": 34962
    },
    {
      "buffer": 0,
      "byteLength": 127800,
      "byteOffset": 139332,
      "target": 34962
    },
    {
      "buffer": 0,
      "byteLength": 85200,
      "byteOffset": 267132,
      "target": 34962
    },
    {
      "buffer": 0,
      "byteLength": 57120,
      "byteOffset": 352332,
      "target": 34963
    },
    {
      "buffer": 0,
      "byteLength": 15360,
      "byteOffset": 409452,
      "target": 34962
    },
    {
      "buffer": 0,
      "byteLength": 15360,
      "byteOffset": 424812,
      "target": 34962
    },
    {
      "buffer": 0,
      "byteLength": 10240,
      "byteOffset": 440172,
      "target": 34962
    },
    {
      "buffer": 0,
      "byteLength": 3840,
      "byteOffset": 450412,
      "target": 34963
    },
    {
      "buffer": 0,
      "byteLength": 576,
      "byteOffset": 454252,
      "target": 34962
    },
    {
      "buffer": 0,
      "byteLength": 576,
      "byteOffset": 454828,
      "target": 34962
    },
    {
      "buffer": 0,
      "byteLength": 384,
      "byteOffset": 455404,
      "target": 34962
    },
    {
      "buffer": 0,
      "byteLength": 168,
      "byteOffset": 455788,
      "target": 34963
    },
    {
      "buffer": 0,
      "byteLength": 144,
      "byteOffset": 455956,
      "target": 34962
    },
    {
      "buffer": 0,
      "byteLength": 144,
      "byteOffset": 456100,
      "target": 34962
    },
    {
      "buffer": 0,
      "byteLength": 96,
      "byteOffset": 456244,
      "target": 34962
    },
    {
      "buffer": 0,
      "byteLength": 36,
      "byteOffset": 456340,
      "target": 34963
    },
    {
      "buffer": 0,
      "byteLength": 168,
      "byteOffset": 456376,
      "target": 34962
    },
    {
      "buffer": 0,
      "byteLength": 168,
      "byteOffset": 456544,
      "target": 34962
    },
    {
      "buffer": 0,
      "byteLength": 112,
      "byteOffset": 456712,
      "target": 34962
    },
    {
      "buffer": 0,
      "byteLength": 56,
      "byteOffset": 456824,
      "target": 34962
    },
    {
      "buffer": 0,
      "byteLength": 168,
      "byteOffset": 456880,
      "target": 34962
    },
    {
      "buffer": 0,
      "byteLength": 96,
      "byteOffset": 457048,
      "target": 34963
    },
    {
      "buffer": 0,
      "byteLength": 216,
      "byteOffset": 457144,
      "target": 34962
    },
    {
      "buffer": 0,
      "byteLength": 216,
      "byteOffset": 457360,
      "target": 34962
    },
    {
      "buffer": 0,
      "byteLength": 144,
      "byteOffset": 457576,
      "target": 34962
    },
    {
      "buffer": 0,
      "byteLength": 48,
      "byteOffset": 457720,
      "target": 34963
    },
    {
      "buffer": 0,
      "byteLength": 6204,
      "byteOffset": 457768,
      "target": 34962
    },
    {
      "buffer": 0,
      "byteLength": 6204,
      "byteOffset": 463972,
      "target": 34962
    },
    {
      "buffer": 0,
      "byteLength": 4136,
      "byteOffset": 470176,
      "target": 34962
    },
    {
      "buffer": 0,
      "byteLength": 5736,
      "byteOffset": 474312,
      "target": 34963
    }
  ],
  "buffers": [
    {
      "uri": "stock_data.bin",
      "byteLength": 480048
    }
  ]
}