<svg width="30" height="37" viewBox="0 0 30 37" fill="none" xmlns="http://www.w3.org/2000/svg">
<path d="M29.727 21.7169C29.727 29.2481 23.1334 35.3533 14.9997 35.3533C6.86609 35.3533 0.272461 29.2481 0.272461 21.7169C0.272461 14.1858 7.83877 8.08057 14.9997 8.08057C22.1607 8.08057 29.727 14.1858 29.727 21.7169Z" fill="#F0F0F0"/>
<path d="M15 4.8074C6.71573 4.8074 0 11.371 0 19.4676V25.5457C0 27.1965 1.36923 28.5347 3.05825 28.5347C4.74728 28.5347 6.1165 27.1965 6.1165 25.5457V23.0753L6.11651 25.688C6.11651 27.2602 7.42054 28.5347 9.02913 28.5347C10.6377 28.5347 11.9418 27.2602 11.9418 25.688L11.9418 23.0753V25.5457C11.9418 27.1965 13.311 28.5347 15 28.5347C16.6863 28.5347 18.0539 27.2007 18.0583 25.5536V25.688C18.0583 27.2602 19.3623 28.5347 20.9709 28.5347C22.5795 28.5347 23.8835 27.2602 23.8835 25.688L23.8835 25.5457C23.8835 27.1965 25.2527 28.5347 26.9417 28.5347C28.6308 28.5347 30 27.1965 30 25.5457V20.6646C30 20.6634 30 20.6622 30 20.661V19.4676C30 11.371 23.2843 4.8074 15 4.8074Z" fill="#FCFCFC"/>
<circle cx="5.72723" cy="17.8683" r="2.18182" fill="#FFCEB9"/>
<circle cx="24.2731" cy="17.8683" r="2.18182" fill="#FFCEB9"/>
<circle cx="8.31791" cy="15.3081" r="2.04545" fill="#525151"/>
<circle cx="0.639205" cy="0.639205" r="0.639205" transform="matrix(-1 0 0 1 9.85156 13.7456)" fill="white"/>
<circle cx="0.383523" cy="0.383523" r="0.383523" transform="matrix(-1 0 0 1 8.57324 15.0239)" fill="white"/>
<circle cx="21.9532" cy="15.3081" r="2.04545" fill="#525151"/>
<circle cx="0.639205" cy="0.639205" r="0.639205" transform="matrix(-1 0 0 1 23.4868 13.7456)" fill="white"/>
<ellipse cx="0.383523" cy="0.383523" rx="0.383523" ry="0.383523" transform="matrix(-1 0 0 1 22.2085 15.0239)" fill="white"/>
<path fill-rule="evenodd" clip-rule="evenodd" d="M15.2043 21.3228C14.7551 22.273 13.9401 22.8905 13.1779 22.7777C12.2398 22.6389 11.7368 21.4464 12.0546 20.1141C12.3723 18.7819 13.3904 17.8144 14.3285 17.9532C14.6999 18.0082 15.0031 18.2283 15.2142 18.5569C15.4247 18.2381 15.7237 18.0248 16.0885 17.9708C17.0266 17.832 18.0447 18.7994 18.3624 20.1317C18.6801 21.4639 18.1772 22.6565 17.2391 22.7953C16.4722 22.9088 15.6518 22.2829 15.2043 21.3228Z" fill="#ED653B"/>
<path d="M13.6067 19.1642C12.3494 18.1382 12.3392 16.2203 13.5853 15.1808C14.5395 14.3847 15.9253 14.3812 16.8835 15.1723C18.1432 16.2124 18.1327 18.146 16.8619 19.1724C15.9115 19.94 14.5532 19.9366 13.6067 19.1642Z" fill="#FFD500"/>
<g style="mix-blend-mode:multiply">
<path fill-rule="evenodd" clip-rule="evenodd" d="M17.7443 17.7911C17.0442 18.0329 16.2323 18.1713 15.3665 18.1713C14.3832 18.1713 13.4693 17.9928 12.7099 17.687C12.8243 18.244 13.1233 18.7697 13.6063 19.1639C14.5527 19.9363 15.911 19.9397 16.8614 19.1721C17.32 18.8017 17.6144 18.3132 17.7443 17.7911Z" fill="#FFD500" fill-opacity="0.5"/>
</g>
<path d="M15.8406 32.6466C15.6919 32.7097 15.5231 32.743 15.3514 32.743H14.9054C14.7336 32.743 14.5649 32.7097 14.4161 32.6466L10.7602 31.0937C10.0751 30.8027 9.22704 31.1997 9.27708 31.7805C9.41354 33.3648 9.41083 34.6142 9.2748 36.1988C9.22499 36.779 10.0721 37.1748 10.7565 36.8842L14.559 35.269C14.7078 35.2058 14.8765 35.1726 15.0483 35.1726H15.2085C15.3803 35.1726 15.549 35.2058 15.6977 35.269L19.5188 36.8921C20.1995 37.1812 21.043 36.791 20.9983 36.2137C20.8748 34.6179 20.869 33.3637 20.9936 31.7688C21.0387 31.1902 20.1934 30.7977 19.5112 31.0875L15.8406 32.6466Z" fill="#ED653B"/>
<g style="mix-blend-mode:multiply">
<path fill-rule="evenodd" clip-rule="evenodd" d="M9.37788 33.9893C9.37724 34.6976 9.34256 35.406 9.27456 36.1981C9.22475 36.7783 10.0719 37.1742 10.7563 36.8835L14.5588 35.2684C14.7075 35.2052 14.8762 35.1719 15.048 35.1719H15.2083C15.38 35.1719 15.5488 35.2052 15.6975 35.2684L19.5186 36.8914C20.1993 37.1805 21.0427 36.7904 20.998 36.213C20.9362 35.4148 20.9039 34.702 20.9027 33.9893H9.37788Z" fill="#ED653B" fill-opacity="0.45"/>
</g>
<path fill-rule="evenodd" clip-rule="evenodd" d="M15.0838 9.03175C14.0677 9.68279 12.7012 9.56414 11.8128 8.6758L9.39139 6.25437C8.36612 5.2291 8.36612 3.5668 9.39139 2.54152C10.2619 1.671 11.5917 1.5396 12.6008 2.14735C12.8256 0.925637 13.8961 0 15.1828 0C16.4349 0 17.4823 0.876488 17.7448 2.04937C18.7281 1.55727 19.956 1.72131 20.7762 2.54152C21.8015 3.5668 21.8015 5.2291 20.7762 6.25437L18.3548 8.6758C17.4664 9.56414 16.0999 9.68279 15.0838 9.03175Z" fill="#ED653B"/>
<g style="mix-blend-mode:multiply">
<path fill-rule="evenodd" clip-rule="evenodd" d="M21.421 5.1968C21.2979 4.81007 21.0829 4.44624 20.7761 4.13945C19.9558 3.31917 18.7278 3.15516 17.7444 3.64742C17.4818 2.47458 16.4345 1.59814 15.1825 1.59814C13.8958 1.59814 12.8254 2.52369 12.6005 3.7453C11.5914 3.13752 10.2616 3.26891 9.39103 4.13945C9.08424 4.44624 8.86924 4.81007 8.74605 5.1968C8.45755 4.2911 8.67254 3.25979 9.39103 2.5413C10.2616 1.67076 11.5914 1.53938 12.6005 2.14716C12.8254 0.925541 13.8958 0 15.1825 0C16.4345 0 17.4818 0.87644 17.7444 2.04927C18.7278 1.55702 19.9558 1.72103 20.7761 2.5413C21.4946 3.25979 21.7095 4.2911 21.421 5.1968Z" fill="#ED653B" fill-opacity="0.5"/>
</g>
</svg>
