<svg width="30" height="35" viewBox="0 0 30 35" fill="none" xmlns="http://www.w3.org/2000/svg">
<path d="M13.7971 2.44309C13.96 1.46611 14.8002 0.788688 15.6737 0.930023C16.5471 1.07136 17.1231 1.97793 16.9601 2.95491L16.7288 4.34138L17.3871 3.13301C17.8554 2.27354 18.8471 1.97043 19.6023 2.456C20.3574 2.94157 20.59 4.03194 20.1217 4.89141L17.8608 9.0413C17.3926 9.90078 16.4009 10.2039 15.6457 9.71832C15.404 9.56285 15.2158 9.3454 15.087 9.09337C14.8399 9.19355 14.5699 9.22949 14.2966 9.18527C14.0726 9.14903 13.8682 9.06248 13.6908 8.93734C13.4529 9.4075 13.034 9.76418 12.5249 9.86866C11.6455 10.0492 10.8298 9.40872 10.7032 8.43821L10.0914 3.75217C9.96472 2.78166 10.5749 1.84858 11.4544 1.66809C12.3338 1.4876 13.1495 2.12804 13.2762 3.09855L13.4568 4.48258L13.7971 2.44309Z" fill="#FFF161"/>
<path d="M30 21.5351C30 29.5098 22.9936 34.5449 15 34.5449C7.0064 34.5449 0 29.5098 0 21.5351C0 13.5603 7.0064 4.80811 15 4.80811C22.9936 4.80811 30 13.5603 30 21.5351Z" fill="#FFF161"/>
<path d="M18.1749 26.5858C18.9934 27.0685 20.4246 26.7121 20.4246 26.7121C20.4246 26.7121 20.0225 25.4179 19.204 24.9352C18.3855 24.4525 16.9705 24.675 16.9705 24.675C16.9705 24.675 17.3564 26.1032 18.1749 26.5858Z" fill="#A0BE56"/>
<path d="M15.7014 27.205C16.2643 28.5067 18.1957 29.3959 18.1957 29.3959C18.1957 29.3959 18.7744 27.5267 18.2115 26.2249C17.6486 24.9232 15.82 23.9023 15.82 23.9023C15.82 23.9023 15.1385 25.9032 15.7014 27.205Z" fill="#BBD468"/>
<path d="M11.5604 24.3755C10.4219 23.6924 10.3302 22.0704 11.3669 21.241C13.4706 19.558 16.4982 19.5734 18.5589 21.3087C19.5329 22.129 19.4282 23.6596 18.3516 24.3396L18.182 24.4466C16.2392 25.6737 13.771 25.7019 11.8007 24.5197L11.5604 24.3755Z" fill="#FFA046"/>
<ellipse cx="13.1356" cy="22.6755" rx="0.442864" ry="0.580296" fill="#CF7520"/>
<ellipse cx="16.6023" cy="22.6755" rx="0.442864" ry="0.580296" fill="#CF7520"/>
<circle cx="2.36842" cy="2.36842" r="2.36842" transform="matrix(-1 0 0 1 10.5259 16.9121)" fill="#3A3A3A"/>
<ellipse cx="0.710526" cy="0.828947" rx="0.710526" ry="0.828947" transform="matrix(-1 0 0 1 9.81537 17.623)" fill="white"/>
<circle cx="0.355263" cy="0.355263" r="0.355263" transform="matrix(-1 0 0 1 8.39435 19.2808)" fill="white"/>
<path d="M6.56694 15.7053C7.83607 15.0542 8.52489 15.1202 9.7205 15.8706" stroke="#3A3A3A" stroke-width="0.5" stroke-linecap="round"/>
<circle cx="2.36842" cy="2.36842" r="2.36842" transform="matrix(-1 0 0 1 24.2106 16.9121)" fill="#3A3A3A"/>
<ellipse cx="0.710526" cy="0.828947" rx="0.710526" ry="0.828947" transform="matrix(-1 0 0 1 23.5 17.623)" fill="white"/>
<circle cx="0.355263" cy="0.355263" r="0.355263" transform="matrix(-1 0 0 1 22.079 19.2808)" fill="white"/>
<path d="M23.7074 15.7053C22.4383 15.0542 21.7495 15.1202 20.5538 15.8706" stroke="#3A3A3A" stroke-width="0.5" stroke-linecap="round"/>
<circle cx="5.26342" cy="24.2829" r="3.15789" fill="#FFAA97"/>
<circle cx="25.0002" cy="24.2829" r="3.15789" fill="#FFAA97"/>
</svg>
