<svg width="32" height="33" viewBox="0 0 32 33" fill="none" xmlns="http://www.w3.org/2000/svg">
<g clip-path="url(#clip0_1492_33153)">
<path d="M4.69121 32.2742L21.2019 27.3884C22.4961 27.0055 23.5552 26.277 24.3412 25.3474C26.4266 22.8812 26.5902 19.0002 24.125 16.4062L18.856 10.8621C15.4616 7.29031 9.47404 8.68522 7.83695 13.3254L2.11752 29.5661C1.54571 31.185 3.04534 32.7629 4.69121 32.2742Z" fill="#FF8C4C"/>
<path d="M4.69121 32.2742L21.2019 27.3884C22.4961 27.0055 23.5552 26.277 24.3412 25.3474C26.4266 22.8812 26.5902 19.0002 24.125 16.4062L18.856 10.8621C15.4616 7.29031 9.47404 8.68522 7.83695 13.3254L2.11752 29.5661C1.54571 31.185 3.04534 32.7629 4.69121 32.2742Z" fill="url(#paint0_linear_1492_33153)"/>
<path d="M4.69121 32.2742L21.2019 27.3884C22.4961 27.0055 23.5552 26.277 24.3412 25.3474C26.4266 22.8812 26.5902 19.0002 24.125 16.4062L18.856 10.8621C15.4616 7.29031 9.47404 8.68522 7.83695 13.3254L2.11752 29.5661C1.54571 31.185 3.04534 32.7629 4.69121 32.2742Z" fill="url(#paint1_linear_1492_33153)"/>
<path d="M4.69121 32.2742L21.2019 27.3884C22.4961 27.0055 23.5552 26.277 24.3412 25.3474C26.4266 22.8812 26.5902 19.0002 24.125 16.4062L18.856 10.8621C15.4616 7.29031 9.47404 8.68522 7.83695 13.3254L2.11752 29.5661C1.54571 31.185 3.04534 32.7629 4.69121 32.2742Z" fill="url(#paint2_radial_1492_33153)"/>
<path d="M4.69121 32.2742L21.2019 27.3884C22.4961 27.0055 23.5552 26.277 24.3412 25.3474C26.4266 22.8812 26.5902 19.0002 24.125 16.4062L18.856 10.8621C15.4616 7.29031 9.47404 8.68522 7.83695 13.3254L2.11752 29.5661C1.54571 31.185 3.04534 32.7629 4.69121 32.2742Z" fill="url(#paint3_radial_1492_33153)"/>
<path opacity="0.5" d="M13.0056 21.5824C13.528 21.0859 13.5489 20.2645 13.0527 19.7317L7.60134 13.9956L6.62585 16.759L11.1551 21.5249C11.6514 22.0577 12.4832 22.0789 13.0056 21.5824Z" fill="url(#paint4_linear_1492_33153)"/>
<path opacity="0.5" d="M8.95538 26.2132C8.43295 26.7097 8.41204 27.5311 8.90828 28.064L11.1071 30.3776L13.9165 29.5439L10.7957 26.2601C10.2992 25.7376 9.47782 25.7167 8.95538 26.2132Z" fill="url(#paint5_linear_1492_33153)"/>
<path opacity="0.5" d="M17.098 19.3874C16.5756 19.8839 16.5547 20.7052 17.0509 21.2381L22.4313 26.8996C23.2329 26.4726 23.9131 25.9073 24.4505 25.2343L18.9484 19.4449C18.4418 18.9118 17.6204 18.8909 17.098 19.3874Z" fill="url(#paint6_linear_1492_33153)"/>
<path d="M18.1326 5.51913C16.3407 6.98761 16.8312 9.03644 17.5166 9.80267C19.0606 11.3677 21.2659 13.5469 21.2659 13.5469C21.6475 13.8063 21.921 13.7553 22.1529 13.7083C22.3257 13.6733 22.4806 13.5405 22.6073 13.3282C22.713 13.1509 22.6132 10.3179 22.8477 7.73934C23.0226 5.81628 20.1722 3.8476 18.1326 5.51913Z" fill="#AAD248"/>
<path d="M18.1326 5.51913C16.3407 6.98761 16.8312 9.03644 17.5166 9.80267C19.0606 11.3677 21.2659 13.5469 21.2659 13.5469C21.6475 13.8063 21.921 13.7553 22.1529 13.7083C22.3257 13.6733 22.4806 13.5405 22.6073 13.3282C22.713 13.1509 22.6132 10.3179 22.8477 7.73934C23.0226 5.81628 20.1722 3.8476 18.1326 5.51913Z" fill="url(#paint7_radial_1492_33153)"/>
<path d="M18.1326 5.51913C16.3407 6.98761 16.8312 9.03644 17.5166 9.80267C19.0606 11.3677 21.2659 13.5469 21.2659 13.5469C21.6475 13.8063 21.921 13.7553 22.1529 13.7083C22.3257 13.6733 22.4806 13.5405 22.6073 13.3282C22.713 13.1509 22.6132 10.3179 22.8477 7.73934C23.0226 5.81628 20.1722 3.8476 18.1326 5.51913Z" fill="url(#paint8_radial_1492_33153)"/>
<path d="M29.3125 16.9374C27.8025 18.6944 25.7657 18.1562 25.0157 17.4531C23.4872 15.8729 21.6876 14.0312 21.6876 14.0312C21.4373 13.6436 21.4946 13.3714 21.547 13.1406C21.586 12.9688 21.7224 12.8169 21.9376 12.6953C22.1174 12.5938 24.6197 12.3459 27.2031 12.1717C29.1297 12.0418 31.0312 14.9374 29.3125 16.9374Z" fill="#AAD248"/>
<path d="M29.3125 16.9374C27.8025 18.6944 25.7657 18.1562 25.0157 17.4531C23.4872 15.8729 21.6876 14.0312 21.6876 14.0312C21.4373 13.6436 21.4946 13.3714 21.547 13.1406C21.586 12.9688 21.7224 12.8169 21.9376 12.6953C22.1174 12.5938 24.6197 12.3459 27.2031 12.1717C29.1297 12.0418 31.0312 14.9374 29.3125 16.9374Z" fill="url(#paint9_radial_1492_33153)"/>
<path d="M29.3125 16.9374C27.8025 18.6944 25.7657 18.1562 25.0157 17.4531C23.4872 15.8729 21.6876 14.0312 21.6876 14.0312C21.4373 13.6436 21.4946 13.3714 21.547 13.1406C21.586 12.9688 21.7224 12.8169 21.9376 12.6953C22.1174 12.5938 24.6197 12.3459 27.2031 12.1717C29.1297 12.0418 31.0312 14.9374 29.3125 16.9374Z" fill="url(#paint10_radial_1492_33153)"/>
<path d="M29.3125 16.9374C27.8025 18.6944 25.7657 18.1562 25.0157 17.4531C23.4872 15.8729 21.6876 14.0312 21.6876 14.0312C21.4373 13.6436 21.4946 13.3714 21.547 13.1406C21.586 12.9688 21.7224 12.8169 21.9376 12.6953C22.1174 12.5938 24.6197 12.3459 27.2031 12.1717C29.1297 12.0418 31.0312 14.9374 29.3125 16.9374Z" fill="url(#paint11_linear_1492_33153)"/>
<path d="M28.0936 6.2656C30.6271 8.12189 29.3124 11.7655 27.203 12.1718C25.6982 12.4616 22.1328 12.6094 22.1328 12.6094C22.1328 12.6094 22.4214 9.02569 22.828 7.8124C23.8124 4.87489 26.5155 5.10929 28.0936 6.2656Z" fill="#AAD248"/>
<path d="M28.0936 6.2656C30.6271 8.12189 29.3124 11.7655 27.203 12.1718C25.6982 12.4616 22.1328 12.6094 22.1328 12.6094C22.1328 12.6094 22.4214 9.02569 22.828 7.8124C23.8124 4.87489 26.5155 5.10929 28.0936 6.2656Z" fill="url(#paint12_radial_1492_33153)"/>
<path d="M28.0936 6.2656C30.6271 8.12189 29.3124 11.7655 27.203 12.1718C25.6982 12.4616 22.1328 12.6094 22.1328 12.6094C22.1328 12.6094 22.4214 9.02569 22.828 7.8124C23.8124 4.87489 26.5155 5.10929 28.0936 6.2656Z" fill="url(#paint13_radial_1492_33153)"/>
</g>
<defs>
<linearGradient id="paint0_linear_1492_33153" x1="-2.5" y1="15" x2="11.5625" y2="22.8125" gradientUnits="userSpaceOnUse">
<stop offset="0.541095" stop-color="#B3734C"/>
<stop offset="0.769434" stop-color="#EA842A"/>
<stop offset="1" stop-color="#FD9434"/>
</linearGradient>
<linearGradient id="paint1_linear_1492_33153" x1="20.5" y1="34.875" x2="15.0625" y2="21.0625" gradientUnits="userSpaceOnUse">
<stop offset="0.403558" stop-color="#FF7CB4"/>
<stop offset="1" stop-color="#FF717B" stop-opacity="0"/>
</linearGradient>
<radialGradient id="paint2_radial_1492_33153" cx="0" cy="0" r="1" gradientUnits="userSpaceOnUse" gradientTransform="translate(21.625 17.375) rotate(131.009) scale(7.61988 15.3206)">
<stop stop-color="#FFD769"/>
<stop offset="0.530115" stop-color="#FFA427"/>
<stop offset="1" stop-color="#FCA328" stop-opacity="0"/>
</radialGradient>
<radialGradient id="paint3_radial_1492_33153" cx="0" cy="0" r="1" gradientUnits="userSpaceOnUse" gradientTransform="translate(8.5625 26.5) rotate(139.81) scale(22.663 22.6004)">
<stop offset="0.0529174" stop-color="#FF9243" stop-opacity="0"/>
<stop offset="0.772514" stop-color="#F28B3A" stop-opacity="0"/>
<stop offset="0.848764" stop-color="#CB751F"/>
</radialGradient>
<linearGradient id="paint4_linear_1492_33153" x1="7.1875" y1="16.1875" x2="12.9375" y2="21.625" gradientUnits="userSpaceOnUse">
<stop offset="0.0997318" stop-color="#6E482A"/>
<stop offset="1" stop-color="#AC5E3B"/>
</linearGradient>
<linearGradient id="paint5_linear_1492_33153" x1="8.94729" y1="26.5124" x2="11.5854" y2="31.2975" gradientUnits="userSpaceOnUse">
<stop offset="0.0997318" stop-color="#9E5044"/>
<stop offset="1" stop-color="#C95D82"/>
</linearGradient>
<linearGradient id="paint6_linear_1492_33153" x1="17.2499" y1="20.1875" x2="22.278" y2="26.914" gradientUnits="userSpaceOnUse">
<stop offset="0.0997318" stop-color="#AA6147"/>
<stop offset="1" stop-color="#CB747C"/>
</linearGradient>
<radialGradient id="paint7_radial_1492_33153" cx="0" cy="0" r="1" gradientUnits="userSpaceOnUse" gradientTransform="translate(21.3127 7.125) rotate(152.103) scale(2.40442 2.25704)">
<stop stop-color="#C1F26B"/>
<stop offset="1" stop-color="#BCEF62" stop-opacity="0"/>
</radialGradient>
<radialGradient id="paint8_radial_1492_33153" cx="0" cy="0" r="1" gradientUnits="userSpaceOnUse" gradientTransform="translate(21.6877 8.75) rotate(170.615) scale(4.98271 7.03763)">
<stop stop-color="#AFDC52" stop-opacity="0"/>
<stop offset="0.712833" stop-color="#8BC028"/>
<stop offset="1" stop-color="#81AA56"/>
</radialGradient>
<radialGradient id="paint9_radial_1492_33153" cx="0" cy="0" r="1" gradientUnits="userSpaceOnUse" gradientTransform="translate(28.4376 14.25) rotate(139.268) scale(2.96924 2.78724)">
<stop stop-color="#C1F26B"/>
<stop offset="1" stop-color="#BCEF62" stop-opacity="0"/>
</radialGradient>
<radialGradient id="paint10_radial_1492_33153" cx="0" cy="0" r="1" gradientUnits="userSpaceOnUse" gradientTransform="translate(25.7818 14.0625) rotate(77.0973) scale(4.61657 12.0851)">
<stop stop-color="#A7D029" stop-opacity="0"/>
<stop offset="1" stop-color="#B3BA74"/>
</radialGradient>
<linearGradient id="paint11_linear_1492_33153" x1="27.7189" y1="11.625" x2="27.6251" y2="13.1875" gradientUnits="userSpaceOnUse">
<stop offset="0.276206" stop-color="#8ACE17"/>
<stop offset="1" stop-color="#91D212" stop-opacity="0"/>
</linearGradient>
<radialGradient id="paint12_radial_1492_33153" cx="0" cy="0" r="1" gradientUnits="userSpaceOnUse" gradientTransform="translate(27.5446 7.35697) rotate(111.999) scale(2.75927 2.11078)">
<stop stop-color="#C1F26B"/>
<stop offset="1" stop-color="#BCEF62" stop-opacity="0"/>
</radialGradient>
<radialGradient id="paint13_radial_1492_33153" cx="0" cy="0" r="1" gradientUnits="userSpaceOnUse" gradientTransform="translate(27.125 8.4375) rotate(135) scale(11.1369 5.35009)">
<stop stop-color="#AFDC52" stop-opacity="0"/>
<stop offset="0.847117" stop-color="#6FB909"/>
</radialGradient>
<clipPath id="clip0_1492_33153">
<rect width="32" height="32" fill="white" transform="translate(0 0.5)"/>
</clipPath>
</defs>
</svg>
