<svg width="323" height="390" viewBox="0 0 323 390" fill="none" xmlns="http://www.w3.org/2000/svg">
<rect x="98" y="130" width="225" height="108" rx="54" fill="#F0E92D"/>
<g filter="url(#filter0_d_1927_31970)">
<mask id="path-2-outside-1_1927_31970" maskUnits="userSpaceOnUse" x="124" y="153" width="173" height="63" fill="black">
<rect fill="white" x="124" y="153" width="173" height="63"/>
<path d="M170.96 172.04C170.96 173 169.547 175.213 166.72 178.68C163.893 182.147 159.653 186.84 154 192.76H170.88C171.467 192.76 171.947 193.56 172.32 195.16C172.747 196.707 172.96 198.92 172.96 201.8C172.96 204.627 172.613 207.133 171.92 209.32C171.28 211.507 170.4 212.6 169.28 212.6H130.32C128.773 212.6 127.653 211.053 126.96 207.96C126.32 204.867 126 201.507 126 197.88C126 197.08 127.493 194.893 130.48 191.32C133.467 187.747 137.973 182.76 144 176.36H128.48C127.04 176.36 126.32 174.04 126.32 169.4C126.32 166.147 126.667 163.08 127.36 160.2C128.053 157.267 128.933 155.8 130 155.8H166.88C169.6 155.8 170.96 161.213 170.96 172.04Z"/>
<path d="M205.046 213.32C200.62 213.32 196.806 212.92 193.606 212.12C190.46 211.267 187.553 209.773 184.886 207.64C179.5 203.427 176.806 195.347 176.806 183.4C176.806 178.387 177.526 174.013 178.966 170.28C180.46 166.547 182.513 163.587 185.126 161.4C190.246 157.133 196.886 155 205.046 155C209.26 155 212.913 155.373 216.006 156.12C219.153 156.867 222.113 158.227 224.886 160.2C230.486 164.253 233.286 171.987 233.286 183.4C233.286 193.64 230.753 201.187 225.686 206.04C220.62 210.893 213.74 213.32 205.046 213.32ZM202.406 199.64C203.046 200.387 203.926 200.76 205.046 200.76C206.166 200.76 207.046 200.387 207.686 199.64C208.326 198.84 208.86 197.187 209.286 194.68C209.713 192.12 209.926 188.573 209.926 184.04C209.926 179.507 209.713 176.013 209.286 173.56C208.86 171.107 208.326 169.507 207.686 168.76C207.046 168.013 206.166 167.64 205.046 167.64C203.926 167.64 203.046 168.013 202.406 168.76C201.766 169.507 201.233 171.107 200.806 173.56C200.38 176.013 200.166 179.507 200.166 184.04C200.166 188.573 200.38 192.12 200.806 194.68C201.233 197.187 201.766 198.84 202.406 199.64Z"/>
<path d="M265.765 213.32C261.338 213.32 257.525 212.92 254.325 212.12C251.178 211.267 248.272 209.773 245.605 207.64C240.218 203.427 237.525 195.347 237.525 183.4C237.525 178.387 238.245 174.013 239.685 170.28C241.178 166.547 243.232 163.587 245.845 161.4C250.965 157.133 257.605 155 265.765 155C269.978 155 273.632 155.373 276.725 156.12C279.872 156.867 282.832 158.227 285.605 160.2C291.205 164.253 294.005 171.987 294.005 183.4C294.005 193.64 291.472 201.187 286.405 206.04C281.338 210.893 274.458 213.32 265.765 213.32ZM263.125 199.64C263.765 200.387 264.645 200.76 265.765 200.76C266.885 200.76 267.765 200.387 268.405 199.64C269.045 198.84 269.578 197.187 270.005 194.68C270.432 192.12 270.645 188.573 270.645 184.04C270.645 179.507 270.432 176.013 270.005 173.56C269.578 171.107 269.045 169.507 268.405 168.76C267.765 168.013 266.885 167.64 265.765 167.64C264.645 167.64 263.765 168.013 263.125 168.76C262.485 169.507 261.952 171.107 261.525 173.56C261.098 176.013 260.885 179.507 260.885 184.04C260.885 188.573 261.098 192.12 261.525 194.68C261.952 197.187 262.485 198.84 263.125 199.64Z"/>
</mask>
<path d="M170.96 172.04C170.96 173 169.547 175.213 166.72 178.68C163.893 182.147 159.653 186.84 154 192.76H170.88C171.467 192.76 171.947 193.56 172.32 195.16C172.747 196.707 172.96 198.92 172.96 201.8C172.96 204.627 172.613 207.133 171.92 209.32C171.28 211.507 170.4 212.6 169.28 212.6H130.32C128.773 212.6 127.653 211.053 126.96 207.96C126.32 204.867 126 201.507 126 197.88C126 197.08 127.493 194.893 130.48 191.32C133.467 187.747 137.973 182.76 144 176.36H128.48C127.04 176.36 126.32 174.04 126.32 169.4C126.32 166.147 126.667 163.08 127.36 160.2C128.053 157.267 128.933 155.8 130 155.8H166.88C169.6 155.8 170.96 161.213 170.96 172.04Z" fill="#FCFCFC"/>
<path d="M205.046 213.32C200.62 213.32 196.806 212.92 193.606 212.12C190.46 211.267 187.553 209.773 184.886 207.64C179.5 203.427 176.806 195.347 176.806 183.4C176.806 178.387 177.526 174.013 178.966 170.28C180.46 166.547 182.513 163.587 185.126 161.4C190.246 157.133 196.886 155 205.046 155C209.26 155 212.913 155.373 216.006 156.12C219.153 156.867 222.113 158.227 224.886 160.2C230.486 164.253 233.286 171.987 233.286 183.4C233.286 193.64 230.753 201.187 225.686 206.04C220.62 210.893 213.74 213.32 205.046 213.32ZM202.406 199.64C203.046 200.387 203.926 200.76 205.046 200.76C206.166 200.76 207.046 200.387 207.686 199.64C208.326 198.84 208.86 197.187 209.286 194.68C209.713 192.12 209.926 188.573 209.926 184.04C209.926 179.507 209.713 176.013 209.286 173.56C208.86 171.107 208.326 169.507 207.686 168.76C207.046 168.013 206.166 167.64 205.046 167.64C203.926 167.64 203.046 168.013 202.406 168.76C201.766 169.507 201.233 171.107 200.806 173.56C200.38 176.013 200.166 179.507 200.166 184.04C200.166 188.573 200.38 192.12 200.806 194.68C201.233 197.187 201.766 198.84 202.406 199.64Z" fill="#FCFCFC"/>
<path d="M265.765 213.32C261.338 213.32 257.525 212.92 254.325 212.12C251.178 211.267 248.272 209.773 245.605 207.64C240.218 203.427 237.525 195.347 237.525 183.4C237.525 178.387 238.245 174.013 239.685 170.28C241.178 166.547 243.232 163.587 245.845 161.4C250.965 157.133 257.605 155 265.765 155C269.978 155 273.632 155.373 276.725 156.12C279.872 156.867 282.832 158.227 285.605 160.2C291.205 164.253 294.005 171.987 294.005 183.4C294.005 193.64 291.472 201.187 286.405 206.04C281.338 210.893 274.458 213.32 265.765 213.32ZM263.125 199.64C263.765 200.387 264.645 200.76 265.765 200.76C266.885 200.76 267.765 200.387 268.405 199.64C269.045 198.84 269.578 197.187 270.005 194.68C270.432 192.12 270.645 188.573 270.645 184.04C270.645 179.507 270.432 176.013 270.005 173.56C269.578 171.107 269.045 169.507 268.405 168.76C267.765 168.013 266.885 167.64 265.765 167.64C264.645 167.64 263.765 168.013 263.125 168.76C262.485 169.507 261.952 171.107 261.525 173.56C261.098 176.013 260.885 179.507 260.885 184.04C260.885 188.573 261.098 192.12 261.525 194.68C261.952 197.187 262.485 198.84 263.125 199.64Z" fill="#FCFCFC"/>
<path d="M170.96 172.04C170.96 173 169.547 175.213 166.72 178.68C163.893 182.147 159.653 186.84 154 192.76H170.88C171.467 192.76 171.947 193.56 172.32 195.16C172.747 196.707 172.96 198.92 172.96 201.8C172.96 204.627 172.613 207.133 171.92 209.32C171.28 211.507 170.4 212.6 169.28 212.6H130.32C128.773 212.6 127.653 211.053 126.96 207.96C126.32 204.867 126 201.507 126 197.88C126 197.08 127.493 194.893 130.48 191.32C133.467 187.747 137.973 182.76 144 176.36H128.48C127.04 176.36 126.32 174.04 126.32 169.4C126.32 166.147 126.667 163.08 127.36 160.2C128.053 157.267 128.933 155.8 130 155.8H166.88C169.6 155.8 170.96 161.213 170.96 172.04Z" stroke="black" stroke-width="4" mask="url(#path-2-outside-1_1927_31970)"/>
<path d="M205.046 213.32C200.62 213.32 196.806 212.92 193.606 212.12C190.46 211.267 187.553 209.773 184.886 207.64C179.5 203.427 176.806 195.347 176.806 183.4C176.806 178.387 177.526 174.013 178.966 170.28C180.46 166.547 182.513 163.587 185.126 161.4C190.246 157.133 196.886 155 205.046 155C209.26 155 212.913 155.373 216.006 156.12C219.153 156.867 222.113 158.227 224.886 160.2C230.486 164.253 233.286 171.987 233.286 183.4C233.286 193.64 230.753 201.187 225.686 206.04C220.62 210.893 213.74 213.32 205.046 213.32ZM202.406 199.64C203.046 200.387 203.926 200.76 205.046 200.76C206.166 200.76 207.046 200.387 207.686 199.64C208.326 198.84 208.86 197.187 209.286 194.68C209.713 192.12 209.926 188.573 209.926 184.04C209.926 179.507 209.713 176.013 209.286 173.56C208.86 171.107 208.326 169.507 207.686 168.76C207.046 168.013 206.166 167.64 205.046 167.64C203.926 167.64 203.046 168.013 202.406 168.76C201.766 169.507 201.233 171.107 200.806 173.56C200.38 176.013 200.166 179.507 200.166 184.04C200.166 188.573 200.38 192.12 200.806 194.68C201.233 197.187 201.766 198.84 202.406 199.64Z" stroke="black" stroke-width="4" mask="url(#path-2-outside-1_1927_31970)"/>
<path d="M265.765 213.32C261.338 213.32 257.525 212.92 254.325 212.12C251.178 211.267 248.272 209.773 245.605 207.64C240.218 203.427 237.525 195.347 237.525 183.4C237.525 178.387 238.245 174.013 239.685 170.28C241.178 166.547 243.232 163.587 245.845 161.4C250.965 157.133 257.605 155 265.765 155C269.978 155 273.632 155.373 276.725 156.12C279.872 156.867 282.832 158.227 285.605 160.2C291.205 164.253 294.005 171.987 294.005 183.4C294.005 193.64 291.472 201.187 286.405 206.04C281.338 210.893 274.458 213.32 265.765 213.32ZM263.125 199.64C263.765 200.387 264.645 200.76 265.765 200.76C266.885 200.76 267.765 200.387 268.405 199.64C269.045 198.84 269.578 197.187 270.005 194.68C270.432 192.12 270.645 188.573 270.645 184.04C270.645 179.507 270.432 176.013 270.005 173.56C269.578 171.107 269.045 169.507 268.405 168.76C267.765 168.013 266.885 167.64 265.765 167.64C264.645 167.64 263.765 168.013 263.125 168.76C262.485 169.507 261.952 171.107 261.525 173.56C261.098 176.013 260.885 179.507 260.885 184.04C260.885 188.573 261.098 192.12 261.525 194.68C261.952 197.187 262.485 198.84 263.125 199.64Z" stroke="black" stroke-width="4" mask="url(#path-2-outside-1_1927_31970)"/>
</g>
<rect x="46" y="252" width="225" height="108" rx="54" fill="#08B9FF"/>
<g filter="url(#filter1_d_1927_31970)">
<mask id="path-4-outside-2_1927_31970" maskUnits="userSpaceOnUse" x="91.7625" y="279.12" width="133" height="61" fill="black">
<rect fill="white" x="91.7625" y="279.12" width="133" height="61"/>
<path d="M116.082 335.68C116.082 336.48 114.349 337.067 110.882 337.44C107.469 337.813 104.216 338 101.122 338C98.0291 338 96.0291 337.813 95.1225 337.44C94.2158 337.067 93.7625 336.48 93.7625 335.68V284.96C93.7625 283.573 94.4558 282.587 95.8425 282C97.2291 281.413 99.8425 281.12 103.682 281.12H133.362C134.482 281.12 135.042 283.147 135.042 287.2C135.042 291.2 134.776 294.267 134.242 296.4C133.762 298.48 133.122 299.52 132.322 299.52L116.082 298.72V304.16C123.176 303.84 127.922 303.68 130.322 303.68C131.122 303.68 131.656 304.107 131.922 304.96C132.242 305.813 132.402 307.467 132.402 309.92C132.402 312.32 132.136 314.64 131.602 316.88C131.069 319.067 130.322 320.16 129.362 320.16L116.082 319.68V335.68Z"/>
<path d="M163.207 336.08C163.207 336.667 161.581 337.147 158.327 337.52C155.074 337.84 151.794 338 148.487 338C145.234 338 143.154 337.867 142.247 337.6C141.341 337.28 140.887 336.773 140.887 336.08V286.32C140.887 285.147 142.434 284 145.527 282.88C148.621 281.707 152.087 281.12 155.927 281.12C159.341 281.12 161.581 281.84 162.647 283.28C163.021 283.813 163.207 284.347 163.207 284.88V336.08Z"/>
<path d="M192.207 335.68C192.207 336.373 190.554 336.933 187.247 337.36C183.994 337.787 180.741 338 177.487 338C174.234 338 172.154 337.813 171.247 337.44C170.341 337.067 169.887 336.48 169.887 335.68V286.56C169.887 285.227 171.407 284 174.447 282.88C177.541 281.76 181.034 281.2 184.927 281.2C186.314 281.2 187.354 281.253 188.047 281.36C189.861 281.627 191.141 282.773 191.887 284.8L199.567 305.44H199.887V286.56C199.887 285.227 201.407 284 204.447 282.88C207.487 281.76 210.954 281.2 214.847 281.2C218.207 281.2 220.341 281.84 221.247 283.12C221.887 284.027 222.207 284.853 222.207 285.6V335.68C222.207 336.373 220.554 336.933 217.247 337.36C213.994 337.787 210.394 338 206.447 338C202.554 338 200.421 337.493 200.047 336.48L192.607 316.8H192.207V335.68Z"/>
</mask>
<path d="M116.082 335.68C116.082 336.48 114.349 337.067 110.882 337.44C107.469 337.813 104.216 338 101.122 338C98.0291 338 96.0291 337.813 95.1225 337.44C94.2158 337.067 93.7625 336.48 93.7625 335.68V284.96C93.7625 283.573 94.4558 282.587 95.8425 282C97.2291 281.413 99.8425 281.12 103.682 281.12H133.362C134.482 281.12 135.042 283.147 135.042 287.2C135.042 291.2 134.776 294.267 134.242 296.4C133.762 298.48 133.122 299.52 132.322 299.52L116.082 298.72V304.16C123.176 303.84 127.922 303.68 130.322 303.68C131.122 303.68 131.656 304.107 131.922 304.96C132.242 305.813 132.402 307.467 132.402 309.92C132.402 312.32 132.136 314.64 131.602 316.88C131.069 319.067 130.322 320.16 129.362 320.16L116.082 319.68V335.68Z" fill="#FCFCFC"/>
<path d="M163.207 336.08C163.207 336.667 161.581 337.147 158.327 337.52C155.074 337.84 151.794 338 148.487 338C145.234 338 143.154 337.867 142.247 337.6C141.341 337.28 140.887 336.773 140.887 336.08V286.32C140.887 285.147 142.434 284 145.527 282.88C148.621 281.707 152.087 281.12 155.927 281.12C159.341 281.12 161.581 281.84 162.647 283.28C163.021 283.813 163.207 284.347 163.207 284.88V336.08Z" fill="#FCFCFC"/>
<path d="M192.207 335.68C192.207 336.373 190.554 336.933 187.247 337.36C183.994 337.787 180.741 338 177.487 338C174.234 338 172.154 337.813 171.247 337.44C170.341 337.067 169.887 336.48 169.887 335.68V286.56C169.887 285.227 171.407 284 174.447 282.88C177.541 281.76 181.034 281.2 184.927 281.2C186.314 281.2 187.354 281.253 188.047 281.36C189.861 281.627 191.141 282.773 191.887 284.8L199.567 305.44H199.887V286.56C199.887 285.227 201.407 284 204.447 282.88C207.487 281.76 210.954 281.2 214.847 281.2C218.207 281.2 220.341 281.84 221.247 283.12C221.887 284.027 222.207 284.853 222.207 285.6V335.68C222.207 336.373 220.554 336.933 217.247 337.36C213.994 337.787 210.394 338 206.447 338C202.554 338 200.421 337.493 200.047 336.48L192.607 316.8H192.207V335.68Z" fill="#FCFCFC"/>
<path d="M116.082 335.68C116.082 336.48 114.349 337.067 110.882 337.44C107.469 337.813 104.216 338 101.122 338C98.0291 338 96.0291 337.813 95.1225 337.44C94.2158 337.067 93.7625 336.48 93.7625 335.68V284.96C93.7625 283.573 94.4558 282.587 95.8425 282C97.2291 281.413 99.8425 281.12 103.682 281.12H133.362C134.482 281.12 135.042 283.147 135.042 287.2C135.042 291.2 134.776 294.267 134.242 296.4C133.762 298.48 133.122 299.52 132.322 299.52L116.082 298.72V304.16C123.176 303.84 127.922 303.68 130.322 303.68C131.122 303.68 131.656 304.107 131.922 304.96C132.242 305.813 132.402 307.467 132.402 309.92C132.402 312.32 132.136 314.64 131.602 316.88C131.069 319.067 130.322 320.16 129.362 320.16L116.082 319.68V335.68Z" stroke="black" stroke-width="4" mask="url(#path-4-outside-2_1927_31970)"/>
<path d="M163.207 336.08C163.207 336.667 161.581 337.147 158.327 337.52C155.074 337.84 151.794 338 148.487 338C145.234 338 143.154 337.867 142.247 337.6C141.341 337.28 140.887 336.773 140.887 336.08V286.32C140.887 285.147 142.434 284 145.527 282.88C148.621 281.707 152.087 281.12 155.927 281.12C159.341 281.12 161.581 281.84 162.647 283.28C163.021 283.813 163.207 284.347 163.207 284.88V336.08Z" stroke="black" stroke-width="4" mask="url(#path-4-outside-2_1927_31970)"/>
<path d="M192.207 335.68C192.207 336.373 190.554 336.933 187.247 337.36C183.994 337.787 180.741 338 177.487 338C174.234 338 172.154 337.813 171.247 337.44C170.341 337.067 169.887 336.48 169.887 335.68V286.56C169.887 285.227 171.407 284 174.447 282.88C177.541 281.76 181.034 281.2 184.927 281.2C186.314 281.2 187.354 281.253 188.047 281.36C189.861 281.627 191.141 282.773 191.887 284.8L199.567 305.44H199.887V286.56C199.887 285.227 201.407 284 204.447 282.88C207.487 281.76 210.954 281.2 214.847 281.2C218.207 281.2 220.341 281.84 221.247 283.12C221.887 284.027 222.207 284.853 222.207 285.6V335.68C222.207 336.373 220.554 336.933 217.247 337.36C213.994 337.787 210.394 338 206.447 338C202.554 338 200.421 337.493 200.047 336.48L192.607 316.8H192.207V335.68Z" stroke="black" stroke-width="4" mask="url(#path-4-outside-2_1927_31970)"/>
</g>
<rect y="8" width="225" height="108" rx="54" fill="#67EB00"/>
<g filter="url(#filter2_d_1927_31970)">
<mask id="path-6-outside-3_1927_31970" maskUnits="userSpaceOnUse" x="26" y="31" width="173" height="63" fill="black">
<rect fill="white" x="26" y="31" width="173" height="63"/>
<path d="M72.96 50.04C72.96 51 71.5467 53.2133 68.72 56.68C65.8933 60.1467 61.6533 64.84 56 70.76H72.88C73.4667 70.76 73.9467 71.56 74.32 73.16C74.7467 74.7067 74.96 76.92 74.96 79.8C74.96 82.6267 74.6133 85.1333 73.92 87.32C73.28 89.5067 72.4 90.6 71.28 90.6H32.32C30.7733 90.6 29.6533 89.0533 28.96 85.96C28.32 82.8667 28 79.5067 28 75.88C28 75.08 29.4933 72.8933 32.48 69.32C35.4667 65.7467 39.9733 60.76 46 54.36H30.48C29.04 54.36 28.32 52.04 28.32 47.4C28.32 44.1467 28.6667 41.08 29.36 38.2C30.0533 35.2667 30.9333 33.8 32 33.8H68.88C71.6 33.8 72.96 39.2133 72.96 50.04Z"/>
<path d="M107.046 91.32C102.62 91.32 98.8063 90.92 95.6063 90.12C92.4596 89.2667 89.5529 87.7733 86.8862 85.64C81.4996 81.4267 78.8063 73.3467 78.8063 61.4C78.8063 56.3867 79.5263 52.0133 80.9663 48.28C82.4596 44.5467 84.5129 41.5867 87.1263 39.4C92.2463 35.1333 98.8862 33 107.046 33C111.26 33 114.913 33.3733 118.006 34.12C121.153 34.8667 124.113 36.2267 126.886 38.2C132.486 42.2533 135.286 49.9867 135.286 61.4C135.286 71.64 132.753 79.1867 127.686 84.04C122.62 88.8933 115.74 91.32 107.046 91.32ZM104.406 77.64C105.046 78.3867 105.926 78.76 107.046 78.76C108.166 78.76 109.046 78.3867 109.686 77.64C110.326 76.84 110.86 75.1867 111.286 72.68C111.713 70.12 111.926 66.5733 111.926 62.04C111.926 57.5067 111.713 54.0133 111.286 51.56C110.86 49.1067 110.326 47.5067 109.686 46.76C109.046 46.0133 108.166 45.64 107.046 45.64C105.926 45.64 105.046 46.0133 104.406 46.76C103.766 47.5067 103.233 49.1067 102.806 51.56C102.38 54.0133 102.166 57.5067 102.166 62.04C102.166 66.5733 102.38 70.12 102.806 72.68C103.233 75.1867 103.766 76.84 104.406 77.64Z"/>
<path d="M167.765 91.32C163.338 91.32 159.525 90.92 156.325 90.12C153.178 89.2667 150.272 87.7733 147.605 85.64C142.218 81.4267 139.525 73.3467 139.525 61.4C139.525 56.3867 140.245 52.0133 141.685 48.28C143.178 44.5467 145.232 41.5867 147.845 39.4C152.965 35.1333 159.605 33 167.765 33C171.978 33 175.632 33.3733 178.725 34.12C181.872 34.8667 184.832 36.2267 187.605 38.2C193.205 42.2533 196.005 49.9867 196.005 61.4C196.005 71.64 193.472 79.1867 188.405 84.04C183.338 88.8933 176.458 91.32 167.765 91.32ZM165.125 77.64C165.765 78.3867 166.645 78.76 167.765 78.76C168.885 78.76 169.765 78.3867 170.405 77.64C171.045 76.84 171.578 75.1867 172.005 72.68C172.432 70.12 172.645 66.5733 172.645 62.04C172.645 57.5067 172.432 54.0133 172.005 51.56C171.578 49.1067 171.045 47.5067 170.405 46.76C169.765 46.0133 168.885 45.64 167.765 45.64C166.645 45.64 165.765 46.0133 165.125 46.76C164.485 47.5067 163.952 49.1067 163.525 51.56C163.098 54.0133 162.885 57.5067 162.885 62.04C162.885 66.5733 163.098 70.12 163.525 72.68C163.952 75.1867 164.485 76.84 165.125 77.64Z"/>
</mask>
<path d="M72.96 50.04C72.96 51 71.5467 53.2133 68.72 56.68C65.8933 60.1467 61.6533 64.84 56 70.76H72.88C73.4667 70.76 73.9467 71.56 74.32 73.16C74.7467 74.7067 74.96 76.92 74.96 79.8C74.96 82.6267 74.6133 85.1333 73.92 87.32C73.28 89.5067 72.4 90.6 71.28 90.6H32.32C30.7733 90.6 29.6533 89.0533 28.96 85.96C28.32 82.8667 28 79.5067 28 75.88C28 75.08 29.4933 72.8933 32.48 69.32C35.4667 65.7467 39.9733 60.76 46 54.36H30.48C29.04 54.36 28.32 52.04 28.32 47.4C28.32 44.1467 28.6667 41.08 29.36 38.2C30.0533 35.2667 30.9333 33.8 32 33.8H68.88C71.6 33.8 72.96 39.2133 72.96 50.04Z" fill="#FCFCFC"/>
<path d="M107.046 91.32C102.62 91.32 98.8063 90.92 95.6063 90.12C92.4596 89.2667 89.5529 87.7733 86.8862 85.64C81.4996 81.4267 78.8063 73.3467 78.8063 61.4C78.8063 56.3867 79.5263 52.0133 80.9663 48.28C82.4596 44.5467 84.5129 41.5867 87.1263 39.4C92.2463 35.1333 98.8862 33 107.046 33C111.26 33 114.913 33.3733 118.006 34.12C121.153 34.8667 124.113 36.2267 126.886 38.2C132.486 42.2533 135.286 49.9867 135.286 61.4C135.286 71.64 132.753 79.1867 127.686 84.04C122.62 88.8933 115.74 91.32 107.046 91.32ZM104.406 77.64C105.046 78.3867 105.926 78.76 107.046 78.76C108.166 78.76 109.046 78.3867 109.686 77.64C110.326 76.84 110.86 75.1867 111.286 72.68C111.713 70.12 111.926 66.5733 111.926 62.04C111.926 57.5067 111.713 54.0133 111.286 51.56C110.86 49.1067 110.326 47.5067 109.686 46.76C109.046 46.0133 108.166 45.64 107.046 45.64C105.926 45.64 105.046 46.0133 104.406 46.76C103.766 47.5067 103.233 49.1067 102.806 51.56C102.38 54.0133 102.166 57.5067 102.166 62.04C102.166 66.5733 102.38 70.12 102.806 72.68C103.233 75.1867 103.766 76.84 104.406 77.64Z" fill="#FCFCFC"/>
<path d="M167.765 91.32C163.338 91.32 159.525 90.92 156.325 90.12C153.178 89.2667 150.272 87.7733 147.605 85.64C142.218 81.4267 139.525 73.3467 139.525 61.4C139.525 56.3867 140.245 52.0133 141.685 48.28C143.178 44.5467 145.232 41.5867 147.845 39.4C152.965 35.1333 159.605 33 167.765 33C171.978 33 175.632 33.3733 178.725 34.12C181.872 34.8667 184.832 36.2267 187.605 38.2C193.205 42.2533 196.005 49.9867 196.005 61.4C196.005 71.64 193.472 79.1867 188.405 84.04C183.338 88.8933 176.458 91.32 167.765 91.32ZM165.125 77.64C165.765 78.3867 166.645 78.76 167.765 78.76C168.885 78.76 169.765 78.3867 170.405 77.64C171.045 76.84 171.578 75.1867 172.005 72.68C172.432 70.12 172.645 66.5733 172.645 62.04C172.645 57.5067 172.432 54.0133 172.005 51.56C171.578 49.1067 171.045 47.5067 170.405 46.76C169.765 46.0133 168.885 45.64 167.765 45.64C166.645 45.64 165.765 46.0133 165.125 46.76C164.485 47.5067 163.952 49.1067 163.525 51.56C163.098 54.0133 162.885 57.5067 162.885 62.04C162.885 66.5733 163.098 70.12 163.525 72.68C163.952 75.1867 164.485 76.84 165.125 77.64Z" fill="#FCFCFC"/>
<path d="M72.96 50.04C72.96 51 71.5467 53.2133 68.72 56.68C65.8933 60.1467 61.6533 64.84 56 70.76H72.88C73.4667 70.76 73.9467 71.56 74.32 73.16C74.7467 74.7067 74.96 76.92 74.96 79.8C74.96 82.6267 74.6133 85.1333 73.92 87.32C73.28 89.5067 72.4 90.6 71.28 90.6H32.32C30.7733 90.6 29.6533 89.0533 28.96 85.96C28.32 82.8667 28 79.5067 28 75.88C28 75.08 29.4933 72.8933 32.48 69.32C35.4667 65.7467 39.9733 60.76 46 54.36H30.48C29.04 54.36 28.32 52.04 28.32 47.4C28.32 44.1467 28.6667 41.08 29.36 38.2C30.0533 35.2667 30.9333 33.8 32 33.8H68.88C71.6 33.8 72.96 39.2133 72.96 50.04Z" stroke="black" stroke-width="4" mask="url(#path-6-outside-3_1927_31970)"/>
<path d="M107.046 91.32C102.62 91.32 98.8063 90.92 95.6063 90.12C92.4596 89.2667 89.5529 87.7733 86.8862 85.64C81.4996 81.4267 78.8063 73.3467 78.8063 61.4C78.8063 56.3867 79.5263 52.0133 80.9663 48.28C82.4596 44.5467 84.5129 41.5867 87.1263 39.4C92.2463 35.1333 98.8862 33 107.046 33C111.26 33 114.913 33.3733 118.006 34.12C121.153 34.8667 124.113 36.2267 126.886 38.2C132.486 42.2533 135.286 49.9867 135.286 61.4C135.286 71.64 132.753 79.1867 127.686 84.04C122.62 88.8933 115.74 91.32 107.046 91.32ZM104.406 77.64C105.046 78.3867 105.926 78.76 107.046 78.76C108.166 78.76 109.046 78.3867 109.686 77.64C110.326 76.84 110.86 75.1867 111.286 72.68C111.713 70.12 111.926 66.5733 111.926 62.04C111.926 57.5067 111.713 54.0133 111.286 51.56C110.86 49.1067 110.326 47.5067 109.686 46.76C109.046 46.0133 108.166 45.64 107.046 45.64C105.926 45.64 105.046 46.0133 104.406 46.76C103.766 47.5067 103.233 49.1067 102.806 51.56C102.38 54.0133 102.166 57.5067 102.166 62.04C102.166 66.5733 102.38 70.12 102.806 72.68C103.233 75.1867 103.766 76.84 104.406 77.64Z" stroke="black" stroke-width="4" mask="url(#path-6-outside-3_1927_31970)"/>
<path d="M167.765 91.32C163.338 91.32 159.525 90.92 156.325 90.12C153.178 89.2667 150.272 87.7733 147.605 85.64C142.218 81.4267 139.525 73.3467 139.525 61.4C139.525 56.3867 140.245 52.0133 141.685 48.28C143.178 44.5467 145.232 41.5867 147.845 39.4C152.965 35.1333 159.605 33 167.765 33C171.978 33 175.632 33.3733 178.725 34.12C181.872 34.8667 184.832 36.2267 187.605 38.2C193.205 42.2533 196.005 49.9867 196.005 61.4C196.005 71.64 193.472 79.1867 188.405 84.04C183.338 88.8933 176.458 91.32 167.765 91.32ZM165.125 77.64C165.765 78.3867 166.645 78.76 167.765 78.76C168.885 78.76 169.765 78.3867 170.405 77.64C171.045 76.84 171.578 75.1867 172.005 72.68C172.432 70.12 172.645 66.5733 172.645 62.04C172.645 57.5067 172.432 54.0133 172.005 51.56C171.578 49.1067 171.045 47.5067 170.405 46.76C169.765 46.0133 168.885 45.64 167.765 45.64C166.645 45.64 165.765 46.0133 165.125 46.76C164.485 47.5067 163.952 49.1067 163.525 51.56C163.098 54.0133 162.885 57.5067 162.885 62.04C162.885 66.5733 163.098 70.12 163.525 72.68C163.952 75.1867 164.485 76.84 165.125 77.64Z" stroke="black" stroke-width="4" mask="url(#path-6-outside-3_1927_31970)"/>
</g>
<defs>
<filter id="filter0_d_1927_31970" x="120" y="153" width="180.005" height="70.3203" filterUnits="userSpaceOnUse" color-interpolation-filters="sRGB">
<feFlood flood-opacity="0" result="BackgroundImageFix"/>
<feColorMatrix in="SourceAlpha" type="matrix" values="0 0 0 0 0 0 0 0 0 0 0 0 0 0 0 0 0 0 127 0" result="hardAlpha"/>
<feOffset dy="4"/>
<feGaussianBlur stdDeviation="2"/>
<feComposite in2="hardAlpha" operator="out"/>
<feColorMatrix type="matrix" values="0 0 0 0 0 0 0 0 0 0 0 0 0 0 0 0 0 0 0.25 0"/>
<feBlend mode="normal" in2="BackgroundImageFix" result="effect1_dropShadow_1927_31970"/>
<feBlend mode="normal" in="SourceGraphic" in2="effect1_dropShadow_1927_31970" result="shape"/>
</filter>
<filter id="filter1_d_1927_31970" x="87.7625" y="279.12" width="140.445" height="68.8799" filterUnits="userSpaceOnUse" color-interpolation-filters="sRGB">
<feFlood flood-opacity="0" result="BackgroundImageFix"/>
<feColorMatrix in="SourceAlpha" type="matrix" values="0 0 0 0 0 0 0 0 0 0 0 0 0 0 0 0 0 0 127 0" result="hardAlpha"/>
<feOffset dy="4"/>
<feGaussianBlur stdDeviation="2"/>
<feComposite in2="hardAlpha" operator="out"/>
<feColorMatrix type="matrix" values="0 0 0 0 0 0 0 0 0 0 0 0 0 0 0 0 0 0 0.25 0"/>
<feBlend mode="normal" in2="BackgroundImageFix" result="effect1_dropShadow_1927_31970"/>
<feBlend mode="normal" in="SourceGraphic" in2="effect1_dropShadow_1927_31970" result="shape"/>
</filter>
<filter id="filter2_d_1927_31970" x="22" y="31" width="180.005" height="70.3203" filterUnits="userSpaceOnUse" color-interpolation-filters="sRGB">
<feFlood flood-opacity="0" result="BackgroundImageFix"/>
<feColorMatrix in="SourceAlpha" type="matrix" values="0 0 0 0 0 0 0 0 0 0 0 0 0 0 0 0 0 0 127 0" result="hardAlpha"/>
<feOffset dy="4"/>
<feGaussianBlur stdDeviation="2"/>
<feComposite in2="hardAlpha" operator="out"/>
<feColorMatrix type="matrix" values="0 0 0 0 0 0 0 0 0 0 0 0 0 0 0 0 0 0 0.25 0"/>
<feBlend mode="normal" in2="BackgroundImageFix" result="effect1_dropShadow_1927_31970"/>
<feBlend mode="normal" in="SourceGraphic" in2="effect1_dropShadow_1927_31970" result="shape"/>
</filter>
</defs>
</svg>
