<svg width="28" height="28" viewBox="0 0 28 28" fill="none" xmlns="http://www.w3.org/2000/svg">
<path d="M16.9555 1.82391C15.9779 1.74344 15.368 1.60368 14.7789 1.67145C14.2233 1.73497 13.6885 2.01026 13.1454 2.19237L13.2081 2.58628C14.2274 2.58628 15.2468 2.54391 16.262 2.59473C21.4716 2.85308 25.3903 5.23755 27.4541 10.1505C28.8746 13.5387 27.3121 16.5161 25.1856 18.9937C21.8351 22.8986 17.5446 25.5541 12.7276 27.172C10.4341 27.9428 7.98591 28.3748 5.50852 27.5659C1.35167 26.2021 -0.737192 23.0722 0.23622 18.7396C0.896302 15.8003 1.89478 12.8483 3.26508 10.1801C5.16595 6.48696 7.8021 3.27663 11.2613 0.86676C13.2123 -0.49276 15.51 -0.310665 16.9597 1.82391H16.9555ZM2.98518 19.9382C2.77211 23.9024 5.27456 26.1301 9.15567 25.4863C14.5658 24.5885 19.0861 21.8737 22.679 17.8841C25.5282 14.7203 26.3972 11.582 24.0409 8.49869C22.7166 6.7707 20.7865 5.33495 18.848 4.31425C15.5309 2.56932 10.6513 4.00086 8.44545 6.98249C8.11123 7.43566 7.80626 7.91423 7.50964 8.39281C5.3038 11.9589 3.23582 15.5843 2.98933 19.9382H2.98518Z" fill="#FF0000"/>
</svg>
