<svg width="28" height="27" viewBox="0 0 28 27" fill="none" xmlns="http://www.w3.org/2000/svg">
<path d="M12.5976 11.9925C15.3799 8.76305 17.9771 5.55672 20.8057 2.57247C21.8427 1.48056 23.4307 0.911469 24.9353 0C25.4538 2.49844 24.6251 3.93273 23.227 5.39016C20.6252 8.10606 18.2456 11.0348 15.6577 14.0098C19.1622 15.805 22.4261 17.4613 25.676 19.1547C26.3149 19.4878 27.0972 19.8256 27.4398 20.3901C27.838 21.0424 27.8333 21.9446 28 22.7404C27.2454 22.8469 26.3334 23.2818 25.7639 23.0042C22.2085 21.2876 18.7039 19.4601 15.241 17.5585C14.1624 16.9663 13.6578 17.0819 12.9263 18.0952C11.4124 20.205 9.90321 22.2223 9.23656 24.8502C8.68102 27.0341 7.894 27.3117 6.42181 26.7472C4.75982 26.1087 4.2089 25.1695 5.05148 23.601C6.24589 21.3709 7.70882 19.2796 9.08842 17.1513C9.57452 16.3972 10.1486 15.6985 10.6995 14.9583C7.53753 12.8161 4.4589 10.734 1.38027 8.65201C0.583989 8.11531 -0.397468 7.60174 0.167333 6.42655C0.727505 5.26986 2.16728 5.0339 3.39874 5.8482C6.2783 7.74517 9.12545 9.69303 11.9865 11.6131C12.1717 11.738 12.3707 11.8491 12.593 11.9833L12.5976 11.9925Z" fill="#FF0000"/>
</svg>
