<svg width="45" height="45" viewBox="0 0 45 45" fill="none" xmlns="http://www.w3.org/2000/svg">
<g clip-path="url(#clip0_2007_26944)">
<path d="M20.0463 41.862L32.3306 29.7968C33.2936 28.8512 33.8866 27.7107 34.1442 26.5209C34.8277 23.3644 33.1502 19.8608 29.7557 18.7278L22.5007 16.3062C17.8267 14.7461 13.1949 18.7888 13.9278 23.6543L16.5024 40.6792C16.7576 42.377 18.8225 43.0662 20.0463 41.862Z" fill="#FF8C4C"/>
<path d="M20.0463 41.862L32.3306 29.7968C33.2936 28.8512 33.8866 27.7107 34.1442 26.5209C34.8277 23.3644 33.1502 19.8608 29.7557 18.7278L22.5007 16.3062C17.8267 14.7461 13.1949 18.7888 13.9278 23.6543L16.5024 40.6792C16.7576 42.377 18.8225 43.0662 20.0463 41.862Z" fill="url(#paint0_linear_2007_26944)"/>
<path d="M20.0463 41.862L32.3306 29.7968C33.2936 28.8512 33.8866 27.7107 34.1442 26.5209C34.8277 23.3644 33.1502 19.8608 29.7557 18.7278L22.5007 16.3062C17.8267 14.7461 13.1949 18.7888 13.9278 23.6543L16.5024 40.6792C16.7576 42.377 18.8225 43.0662 20.0463 41.862Z" fill="url(#paint1_linear_2007_26944)"/>
<path d="M20.0463 41.862L32.3306 29.7968C33.2936 28.8512 33.8866 27.7107 34.1442 26.5209C34.8277 23.3644 33.1502 19.8608 29.7557 18.7278L22.5007 16.3062C17.8267 14.7461 13.1949 18.7888 13.9278 23.6543L16.5024 40.6792C16.7576 42.377 18.8225 43.0662 20.0463 41.862Z" fill="url(#paint2_radial_2007_26944)"/>
<path d="M20.0463 41.862L32.3306 29.7968C33.2936 28.8512 33.8866 27.7107 34.1442 26.5209C34.8277 23.3644 33.1502 19.8608 29.7557 18.7278L22.5007 16.3062C17.8267 14.7461 13.1949 18.7888 13.9278 23.6543L16.5024 40.6792C16.7576 42.377 18.8225 43.0662 20.0463 41.862Z" fill="url(#paint3_radial_2007_26944)"/>
<path opacity="0.5" d="M22.3681 28.519C22.5962 27.8354 22.2291 27.1003 21.5408 26.8628L14.0346 24.3574L14.4706 27.2553L20.7072 29.337C21.3955 29.5745 22.1399 29.2027 22.3681 28.519Z" fill="url(#paint4_linear_2007_26944)"/>
<path opacity="0.5" d="M20.9659 34.509C20.7377 35.1927 21.1048 35.9277 21.7931 36.1652L24.8207 37.1758L26.91 35.1208L22.6128 33.6864C21.9291 33.4582 21.1941 33.8254 20.9659 34.509Z" fill="url(#paint5_linear_2007_26944)"/>
<path opacity="0.5" d="M24.9511 24.6592C24.7229 25.3429 25.0901 26.078 25.7784 26.3154L33.1869 28.7883C33.6942 28.035 34.0294 27.2165 34.1879 26.37L26.612 23.8413C25.9144 23.6084 25.1793 23.9756 24.9511 24.6592Z" fill="url(#paint6_linear_2007_26944)"/>
<path d="M19.3536 11.9286C18.4609 14.0664 19.8558 15.6452 20.8207 16C22.9187 16.6569 25.8889 17.5457 25.8889 17.5457C26.3476 17.5956 26.5652 17.4222 26.7479 17.2718C26.884 17.1598 26.9585 16.9698 26.9706 16.7229C26.9807 16.5167 25.5626 14.0622 24.5591 11.6754C23.8106 9.89529 20.3697 9.49519 19.3536 11.9286Z" fill="#AAD248"/>
<path d="M19.3536 11.9286C18.4609 14.0664 19.8558 15.6452 20.8207 16C22.9187 16.6569 25.8889 17.5457 25.8889 17.5457C26.3476 17.5956 26.5652 17.4222 26.7479 17.2718C26.884 17.1598 26.9585 16.9698 26.9706 16.7229C26.9807 16.5167 25.5626 14.0622 24.5591 11.6754C23.8106 9.89529 20.3697 9.49519 19.3536 11.9286Z" fill="url(#paint7_radial_2007_26944)"/>
<path d="M19.3536 11.9286C18.4609 14.0664 19.8558 15.6452 20.8207 16C22.9187 16.6569 25.8889 17.5457 25.8889 17.5457C26.3476 17.5956 26.5652 17.4222 26.7479 17.2718C26.884 17.1598 26.9585 16.9698 26.9706 16.7229C26.9807 16.5167 25.5626 14.0622 24.5591 11.6754C23.8106 9.89529 20.3697 9.49519 19.3536 11.9286Z" fill="url(#paint8_radial_2007_26944)"/>
<path d="M34.5853 16.7613C34.0769 19.0216 32.0259 19.5026 31.0336 19.2339C28.9421 18.5562 26.4886 17.775 26.4886 17.775C26.0855 17.5503 26.0083 17.2831 25.9463 17.0547C25.9001 16.8846 25.9492 16.6865 26.0821 16.4781C26.1931 16.304 28.2862 14.9103 30.4855 13.5438C32.1256 12.5246 35.1639 14.1885 34.5853 16.7613Z" fill="#AAD248"/>
<path d="M34.5853 16.7613C34.0769 19.0216 32.0259 19.5026 31.0336 19.2339C28.9421 18.5562 26.4886 17.775 26.4886 17.775C26.0855 17.5503 26.0083 17.2831 25.9463 17.0547C25.9001 16.8846 25.9492 16.6865 26.0821 16.4781C26.1931 16.304 28.2862 14.9103 30.4855 13.5438C32.1256 12.5246 35.1639 14.1885 34.5853 16.7613Z" fill="url(#paint9_radial_2007_26944)"/>
<path d="M34.5853 16.7613C34.0769 19.0216 32.0259 19.5026 31.0336 19.2339C28.9421 18.5562 26.4886 17.775 26.4886 17.775C26.0855 17.5503 26.0083 17.2831 25.9463 17.0547C25.9001 16.8846 25.9492 16.6865 26.0821 16.4781C26.1931 16.304 28.2862 14.9103 30.4855 13.5438C32.1256 12.5246 35.1639 14.1885 34.5853 16.7613Z" fill="url(#paint10_radial_2007_26944)"/>
<path d="M34.5853 16.7613C34.0769 19.0216 32.0259 19.5026 31.0336 19.2339C28.9421 18.5562 26.4886 17.775 26.4886 17.775C26.0855 17.5503 26.0083 17.2831 25.9463 17.0547C25.9001 16.8846 25.9492 16.6865 26.0821 16.4781C26.1931 16.304 28.2862 14.9103 30.4855 13.5438C32.1256 12.5246 35.1639 14.1885 34.5853 16.7613Z" fill="url(#paint11_linear_2007_26944)"/>
<path d="M28.4992 7.91109C31.6076 8.36071 32.1573 12.195 30.4856 13.544C29.293 14.5064 26.2143 16.3107 26.2143 16.3107C26.2143 16.3107 24.7867 13.011 24.5761 11.7489C24.0662 8.69309 26.5629 7.63102 28.4992 7.91109Z" fill="#AAD248"/>
<path d="M28.4992 7.91109C31.6076 8.36071 32.1573 12.195 30.4856 13.544C29.293 14.5064 26.2143 16.3107 26.2143 16.3107C26.2143 16.3107 24.7867 13.011 24.5761 11.7489C24.0662 8.69309 26.5629 7.63102 28.4992 7.91109Z" fill="url(#paint12_radial_2007_26944)"/>
<path d="M28.4992 7.91109C31.6076 8.36071 32.1573 12.195 30.4856 13.544C29.293 14.5064 26.2143 16.3107 26.2143 16.3107C26.2143 16.3107 24.7867 13.011 24.5761 11.7489C24.0662 8.69309 26.5629 7.63102 28.4992 7.91109Z" fill="url(#paint13_radial_2007_26944)"/>
</g>
<defs>
<linearGradient id="paint0_linear_2007_26944" x1="5.58705" y1="29.9859" x2="21.6712" y2="30.2819" gradientUnits="userSpaceOnUse">
<stop offset="0.541095" stop-color="#B3734C"/>
<stop offset="0.769434" stop-color="#EA842A"/>
<stop offset="1" stop-color="#FD9434"/>
</linearGradient>
<linearGradient id="paint1_linear_2007_26944" x1="35.2256" y1="36.7366" x2="23.94" y2="27.0936" gradientUnits="userSpaceOnUse">
<stop offset="0.403558" stop-color="#FF7CB4"/>
<stop offset="1" stop-color="#FF717B" stop-opacity="0"/>
</linearGradient>
<radialGradient id="paint2_radial_2007_26944" cx="0" cy="0" r="1" gradientUnits="userSpaceOnUse" gradientTransform="translate(28.0032 20.7569) rotate(103.009) scale(7.61988 15.3206)">
<stop stop-color="#787C7B"/>
<stop offset="0.530115" stop-color="#70490B"/>
<stop offset="1" stop-color="#393406"/>
</radialGradient>
<radialGradient id="paint3_radial_2007_26944" cx="0" cy="0" r="1" gradientUnits="userSpaceOnUse" gradientTransform="translate(20.7536 34.9462) rotate(111.81) scale(22.663 22.6004)">
<stop offset="0.0529174" stop-color="#FF9243" stop-opacity="0"/>
<stop offset="0.772514" stop-color="#F28B3A" stop-opacity="0"/>
<stop offset="0.848764" stop-color="#CB751F"/>
</radialGradient>
<linearGradient id="paint4_linear_2007_26944" x1="14.6982" y1="26.487" x2="22.3279" y2="28.5886" gradientUnits="userSpaceOnUse">
<stop offset="0.0997318" stop-color="#6E482A"/>
<stop offset="1" stop-color="#AC5E3B"/>
</linearGradient>
<linearGradient id="paint5_linear_2007_26944" x1="21.0992" y1="34.777" x2="25.675" y2="37.7634" gradientUnits="userSpaceOnUse">
<stop offset="0.0997318" stop-color="#9E5044"/>
<stop offset="1" stop-color="#C95D82"/>
</linearGradient>
<linearGradient id="paint6_linear_2007_26944" x1="25.4609" y1="25.2944" x2="33.0583" y2="28.873" gradientUnits="userSpaceOnUse">
<stop offset="0.0997318" stop-color="#AA6147"/>
<stop offset="1" stop-color="#CB747C"/>
</linearGradient>
<radialGradient id="paint7_radial_2007_26944" cx="0" cy="0" r="1" gradientUnits="userSpaceOnUse" gradientTransform="translate(22.9154 11.8535) rotate(124.103) scale(2.40442 2.25704)">
<stop stop-color="#C1F26B"/>
<stop offset="1" stop-color="#BCEF62" stop-opacity="0"/>
</radialGradient>
<radialGradient id="paint8_radial_2007_26944" cx="0" cy="0" r="1" gradientUnits="userSpaceOnUse" gradientTransform="translate(24.0094 13.1123) rotate(142.615) scale(4.98271 7.03763)">
<stop stop-color="#AFDC52" stop-opacity="0"/>
<stop offset="0.712833" stop-color="#8BC028"/>
<stop offset="1" stop-color="#81AA56"/>
</radialGradient>
<radialGradient id="paint9_radial_2007_26944" cx="0" cy="0" r="1" gradientUnits="userSpaceOnUse" gradientTransform="translate(32.5512 14.7992) rotate(111.268) scale(2.96924 2.78724)">
<stop stop-color="#C1F26B"/>
<stop offset="1" stop-color="#BCEF62" stop-opacity="0"/>
</radialGradient>
<radialGradient id="paint10_radial_2007_26944" cx="0" cy="0" r="1" gradientUnits="userSpaceOnUse" gradientTransform="translate(30.1182 15.8805) rotate(49.0973) scale(4.61657 12.0851)">
<stop stop-color="#A7D029" stop-opacity="0"/>
<stop offset="1" stop-color="#B3BA74"/>
</radialGradient>
<linearGradient id="paint11_linear_2007_26944" x1="30.6842" y1="12.8189" x2="31.335" y2="14.2425" gradientUnits="userSpaceOnUse">
<stop offset="0.276206" stop-color="#8ACE17"/>
<stop offset="1" stop-color="#91D212" stop-opacity="0"/>
</linearGradient>
<radialGradient id="paint12_radial_2007_26944" cx="0" cy="0" r="1" gradientUnits="userSpaceOnUse" gradientTransform="translate(28.5268 9.13247) rotate(83.9995) scale(2.75927 2.11078)">
<stop stop-color="#C1F26B"/>
<stop offset="1" stop-color="#BCEF62" stop-opacity="0"/>
</radialGradient>
<radialGradient id="paint13_radial_2007_26944" cx="0" cy="0" r="1" gradientUnits="userSpaceOnUse" gradientTransform="translate(28.6636 10.2835) rotate(107) scale(11.1369 5.35009)">
<stop stop-color="#AFDC52" stop-opacity="0"/>
<stop offset="0.847117" stop-color="#6FB909"/>
</radialGradient>
<clipPath id="clip0_2007_26944">
<rect width="32" height="32" fill="white" transform="translate(0.987305 16.0098) rotate(-28)"/>
</clipPath>
</defs>
</svg>
