<svg width="44" height="44" viewBox="0 0 44 44" fill="none" xmlns="http://www.w3.org/2000/svg">
<g clip-path="url(#clip0_2007_26908)">
<path d="M19.4203 41.236L31.7046 29.1708C32.6676 28.2252 33.2606 27.0847 33.5183 25.8949C34.2017 22.7384 32.5242 19.2348 29.1297 18.1018L21.8747 15.6802C17.2007 14.1202 12.5689 18.1628 13.3019 23.0283L15.8765 40.0532C16.1316 41.751 18.1965 42.4402 19.4203 41.236Z" fill="#FF8C4C"/>
<path d="M19.4203 41.236L31.7046 29.1708C32.6676 28.2252 33.2606 27.0847 33.5183 25.8949C34.2017 22.7384 32.5242 19.2348 29.1297 18.1018L21.8747 15.6802C17.2007 14.1202 12.5689 18.1628 13.3019 23.0283L15.8765 40.0532C16.1316 41.751 18.1965 42.4402 19.4203 41.236Z" fill="url(#paint0_linear_2007_26908)"/>
<path d="M19.4203 41.236L31.7046 29.1708C32.6676 28.2252 33.2606 27.0847 33.5183 25.8949C34.2017 22.7384 32.5242 19.2348 29.1297 18.1018L21.8747 15.6802C17.2007 14.1202 12.5689 18.1628 13.3019 23.0283L15.8765 40.0532C16.1316 41.751 18.1965 42.4402 19.4203 41.236Z" fill="url(#paint1_linear_2007_26908)"/>
<path d="M19.4203 41.236L31.7046 29.1708C32.6676 28.2252 33.2606 27.0847 33.5183 25.8949C34.2017 22.7384 32.5242 19.2348 29.1297 18.1018L21.8747 15.6802C17.2007 14.1202 12.5689 18.1628 13.3019 23.0283L15.8765 40.0532C16.1316 41.751 18.1965 42.4402 19.4203 41.236Z" fill="url(#paint2_radial_2007_26908)"/>
<path d="M19.4203 41.236L31.7046 29.1708C32.6676 28.2252 33.2606 27.0847 33.5183 25.8949C34.2017 22.7384 32.5242 19.2348 29.1297 18.1018L21.8747 15.6802C17.2007 14.1202 12.5689 18.1628 13.3019 23.0283L15.8765 40.0532C16.1316 41.751 18.1965 42.4402 19.4203 41.236Z" fill="url(#paint3_radial_2007_26908)"/>
<path opacity="0.5" d="M21.7421 27.893C21.9703 27.2094 21.6031 26.4743 20.9148 26.2368L13.4086 23.7314L13.8447 26.6293L20.0812 28.711C20.7695 28.9485 21.5139 28.5767 21.7421 27.893Z" fill="url(#paint4_linear_2007_26908)"/>
<path opacity="0.5" d="M20.3399 33.8831C20.1117 34.5667 20.4789 35.3018 21.1672 35.5393L24.1947 36.5498L26.284 34.4948L21.9868 33.0604C21.3031 32.8322 20.5681 33.1994 20.3399 33.8831Z" fill="url(#paint5_linear_2007_26908)"/>
<path opacity="0.5" d="M24.3251 24.0333C24.097 24.7169 24.4641 25.452 25.1524 25.6895L32.5609 28.1623C33.0682 27.409 33.4035 26.5905 33.562 25.744L25.986 23.2153C25.2884 22.9825 24.5533 23.3496 24.3251 24.0333Z" fill="url(#paint6_linear_2007_26908)"/>
<path d="M18.7276 11.3026C17.8349 13.4405 19.2298 15.0192 20.1947 15.374C22.2928 16.031 25.2629 16.9197 25.2629 16.9197C25.7216 16.9696 25.9392 16.7962 26.1219 16.6458C26.258 16.5338 26.3325 16.3438 26.3446 16.0969C26.3547 15.8907 24.9366 13.4362 23.9331 11.0494C23.1847 9.26932 19.7438 8.86922 18.7276 11.3026Z" fill="#AAD248"/>
<path d="M18.7276 11.3026C17.8349 13.4405 19.2298 15.0192 20.1947 15.374C22.2928 16.031 25.2629 16.9197 25.2629 16.9197C25.7216 16.9696 25.9392 16.7962 26.1219 16.6458C26.258 16.5338 26.3325 16.3438 26.3446 16.0969C26.3547 15.8907 24.9366 13.4362 23.9331 11.0494C23.1847 9.26932 19.7438 8.86922 18.7276 11.3026Z" fill="url(#paint7_radial_2007_26908)"/>
<path d="M18.7276 11.3026C17.8349 13.4405 19.2298 15.0192 20.1947 15.374C22.2928 16.031 25.2629 16.9197 25.2629 16.9197C25.7216 16.9696 25.9392 16.7962 26.1219 16.6458C26.258 16.5338 26.3325 16.3438 26.3446 16.0969C26.3547 15.8907 24.9366 13.4362 23.9331 11.0494C23.1847 9.26932 19.7438 8.86922 18.7276 11.3026Z" fill="url(#paint8_radial_2007_26908)"/>
<path d="M33.9593 16.1353C33.451 18.3956 31.3999 18.8766 30.4076 18.6079C28.3161 17.9302 25.8626 17.149 25.8626 17.149C25.4596 16.9243 25.3824 16.6571 25.3203 16.4287C25.2741 16.2586 25.3232 16.0605 25.4562 15.8521C25.5672 15.6781 27.6603 14.2844 29.8595 12.9178C31.4996 11.8986 34.5379 13.5625 33.9593 16.1353Z" fill="#AAD248"/>
<path d="M33.9593 16.1353C33.451 18.3956 31.3999 18.8766 30.4076 18.6079C28.3161 17.9302 25.8626 17.149 25.8626 17.149C25.4596 16.9243 25.3824 16.6571 25.3203 16.4287C25.2741 16.2586 25.3232 16.0605 25.4562 15.8521C25.5672 15.6781 27.6603 14.2844 29.8595 12.9178C31.4996 11.8986 34.5379 13.5625 33.9593 16.1353Z" fill="url(#paint9_radial_2007_26908)"/>
<path d="M33.9593 16.1353C33.451 18.3956 31.3999 18.8766 30.4076 18.6079C28.3161 17.9302 25.8626 17.149 25.8626 17.149C25.4596 16.9243 25.3824 16.6571 25.3203 16.4287C25.2741 16.2586 25.3232 16.0605 25.4562 15.8521C25.5672 15.6781 27.6603 14.2844 29.8595 12.9178C31.4996 11.8986 34.5379 13.5625 33.9593 16.1353Z" fill="url(#paint10_radial_2007_26908)"/>
<path d="M33.9593 16.1353C33.451 18.3956 31.3999 18.8766 30.4076 18.6079C28.3161 17.9302 25.8626 17.149 25.8626 17.149C25.4596 16.9243 25.3824 16.6571 25.3203 16.4287C25.2741 16.2586 25.3232 16.0605 25.4562 15.8521C25.5672 15.6781 27.6603 14.2844 29.8595 12.9178C31.4996 11.8986 34.5379 13.5625 33.9593 16.1353Z" fill="url(#paint11_linear_2007_26908)"/>
<path d="M27.8732 7.28511C30.9816 7.73474 31.5313 11.5691 29.8596 12.9181C28.667 13.8804 25.5884 15.6848 25.5884 15.6848C25.5884 15.6848 24.1607 12.3851 23.9501 11.1229C23.4402 8.06711 25.9369 7.00504 27.8732 7.28511Z" fill="#AAD248"/>
<path d="M27.8732 7.28511C30.9816 7.73474 31.5313 11.5691 29.8596 12.9181C28.667 13.8804 25.5884 15.6848 25.5884 15.6848C25.5884 15.6848 24.1607 12.3851 23.9501 11.1229C23.4402 8.06711 25.9369 7.00504 27.8732 7.28511Z" fill="url(#paint12_radial_2007_26908)"/>
<path d="M27.8732 7.28511C30.9816 7.73474 31.5313 11.5691 29.8596 12.9181C28.667 13.8804 25.5884 15.6848 25.5884 15.6848C25.5884 15.6848 24.1607 12.3851 23.9501 11.1229C23.4402 8.06711 25.9369 7.00504 27.8732 7.28511Z" fill="url(#paint13_radial_2007_26908)"/>
</g>
<defs>
<linearGradient id="paint0_linear_2007_26908" x1="4.96107" y1="29.3599" x2="21.0453" y2="29.656" gradientUnits="userSpaceOnUse">
<stop offset="0.541095" stop-color="#B3734C"/>
<stop offset="0.769434" stop-color="#EA842A"/>
<stop offset="1" stop-color="#FD9434"/>
</linearGradient>
<linearGradient id="paint1_linear_2007_26908" x1="34.5996" y1="36.1106" x2="23.314" y2="26.4676" gradientUnits="userSpaceOnUse">
<stop offset="0.403558" stop-color="#FF7CB4"/>
<stop offset="1" stop-color="#FF717B" stop-opacity="0"/>
</linearGradient>
<radialGradient id="paint2_radial_2007_26908" cx="0" cy="0" r="1" gradientUnits="userSpaceOnUse" gradientTransform="translate(27.3772 20.1309) rotate(103.009) scale(7.61988 15.3206)">
<stop stop-color="#FFD769"/>
<stop offset="0.530115" stop-color="#FFA427"/>
<stop offset="1" stop-color="#FCA328" stop-opacity="0"/>
</radialGradient>
<radialGradient id="paint3_radial_2007_26908" cx="0" cy="0" r="1" gradientUnits="userSpaceOnUse" gradientTransform="translate(20.1276 34.3202) rotate(111.81) scale(22.663 22.6004)">
<stop offset="0.0529174" stop-color="#FF9243" stop-opacity="0"/>
<stop offset="0.772514" stop-color="#F28B3A" stop-opacity="0"/>
<stop offset="0.848764" stop-color="#CB751F"/>
</radialGradient>
<linearGradient id="paint4_linear_2007_26908" x1="14.0723" y1="25.8611" x2="21.702" y2="27.9626" gradientUnits="userSpaceOnUse">
<stop offset="0.0997318" stop-color="#6E482A"/>
<stop offset="1" stop-color="#AC5E3B"/>
</linearGradient>
<linearGradient id="paint5_linear_2007_26908" x1="20.4732" y1="34.151" x2="25.049" y2="37.1374" gradientUnits="userSpaceOnUse">
<stop offset="0.0997318" stop-color="#9E5044"/>
<stop offset="1" stop-color="#C95D82"/>
</linearGradient>
<linearGradient id="paint6_linear_2007_26908" x1="24.8349" y1="24.6684" x2="32.4323" y2="28.2471" gradientUnits="userSpaceOnUse">
<stop offset="0.0997318" stop-color="#AA6147"/>
<stop offset="1" stop-color="#CB747C"/>
</linearGradient>
<radialGradient id="paint7_radial_2007_26908" cx="0" cy="0" r="1" gradientUnits="userSpaceOnUse" gradientTransform="translate(22.2894 11.2276) rotate(124.103) scale(2.40442 2.25704)">
<stop stop-color="#C1F26B"/>
<stop offset="1" stop-color="#BCEF62" stop-opacity="0"/>
</radialGradient>
<radialGradient id="paint8_radial_2007_26908" cx="0" cy="0" r="1" gradientUnits="userSpaceOnUse" gradientTransform="translate(23.3834 12.4863) rotate(142.615) scale(4.98271 7.03763)">
<stop stop-color="#AFDC52" stop-opacity="0"/>
<stop offset="0.712833" stop-color="#8BC028"/>
<stop offset="1" stop-color="#81AA56"/>
</radialGradient>
<radialGradient id="paint9_radial_2007_26908" cx="0" cy="0" r="1" gradientUnits="userSpaceOnUse" gradientTransform="translate(31.9252 14.1732) rotate(111.268) scale(2.96924 2.78724)">
<stop stop-color="#C1F26B"/>
<stop offset="1" stop-color="#BCEF62" stop-opacity="0"/>
</radialGradient>
<radialGradient id="paint10_radial_2007_26908" cx="0" cy="0" r="1" gradientUnits="userSpaceOnUse" gradientTransform="translate(29.4922 15.2545) rotate(49.0973) scale(4.61657 12.0851)">
<stop stop-color="#A7D029" stop-opacity="0"/>
<stop offset="1" stop-color="#B3BA74"/>
</radialGradient>
<linearGradient id="paint11_linear_2007_26908" x1="30.0582" y1="12.1929" x2="30.709" y2="13.6166" gradientUnits="userSpaceOnUse">
<stop offset="0.276206" stop-color="#8ACE17"/>
<stop offset="1" stop-color="#91D212" stop-opacity="0"/>
</linearGradient>
<radialGradient id="paint12_radial_2007_26908" cx="0" cy="0" r="1" gradientUnits="userSpaceOnUse" gradientTransform="translate(27.9008 8.5065) rotate(83.9995) scale(2.75927 2.11078)">
<stop stop-color="#C1F26B"/>
<stop offset="1" stop-color="#BCEF62" stop-opacity="0"/>
</radialGradient>
<radialGradient id="paint13_radial_2007_26908" cx="0" cy="0" r="1" gradientUnits="userSpaceOnUse" gradientTransform="translate(28.0376 9.65752) rotate(107) scale(11.1369 5.35009)">
<stop stop-color="#AFDC52" stop-opacity="0"/>
<stop offset="0.847117" stop-color="#6FB909"/>
</radialGradient>
<clipPath id="clip0_2007_26908">
<rect width="32" height="32" fill="white" transform="translate(0.361328 15.3838) rotate(-28)"/>
</clipPath>
</defs>
</svg>
