<svg width="402" height="221" viewBox="0 0 402 221" fill="none" xmlns="http://www.w3.org/2000/svg">
<path d="M363.552 104.23C368.648 91.4914 375.48 83.5797 371.382 60.9527C355.028 -2.38718 297.113 0.515006 191.403 0.515006C179.344 0.515006 167.544 0.378323 156.103 0.245787C67.2568 -0.783411 0 -1.56252 0 63.8549C0 94.1823 14.455 122.151 38.8148 144.584C35.4193 151.849 32.7289 159.291 30.735 166.806C30.735 222.251 88.8259 221.667 175.407 220.795C186.689 220.681 198.454 220.563 210.637 220.563C222.694 220.563 234.491 220.679 245.93 220.791C334.757 221.665 402 222.326 402 166.806C399.248 145.156 385.544 123.083 363.552 104.23Z" fill="#EBF4F0"/>
</svg>
