<svg width="20" height="18" viewBox="0 0 20 18" fill="none" xmlns="http://www.w3.org/2000/svg">
<path d="M17.6271 3.68424H2.37288C1.18644 3.68424 0 2.89476 0 1.84212C0 0.921059 1.01695 0 2.37288 0H17.6271C18.8136 0 20 0.789479 20 1.84212C19.8305 2.89476 18.8136 3.68424 17.6271 3.68424Z" fill="white"/>
<path d="M17.6271 10.3685H2.37288C1.18644 10.3685 0 9.57899 0 8.52635C0 7.60529 1.01695 6.68423 2.37288 6.68423H17.6271C18.8136 6.68423 20 7.47371 20 8.52635C19.8305 9.44741 18.8136 10.3685 17.6271 10.3685Z" fill="white"/>
<path d="M17.6271 17.0527H2.37288C1.18644 17.0527 0 16.2632 0 15.2106C0 14.2895 1.01695 13.3685 2.37288 13.3685H17.6271C18.8136 13.3685 20 14.1579 20 15.2106C19.8305 16.1316 18.8136 17.0527 17.6271 17.0527Z" fill="white"/>
</svg>
